<?xml version="1.0" encoding="UTF-8"?>
<svg fill="none" viewBox="0 0 20 21" xmlns="http://www.w3.org/2000/svg" id="icon">
<path d="m15.29 4.6422 0.8177 0.81778-2.3909 2.3911-0.8177-0.81778 2.3909-2.3911zm0.0089-2.1422c-0.2311 0-0.4533 0.08889-0.6311 0.25778l-2.7731 2.7733-1.7154-1.6978-1.2533 1.2533 1.2622 1.2622-7.9284 7.9289v4.2222h4.2219l7.9284-7.9289 1.2621 1.2622 1.2533-1.2533-1.7066-1.7067 2.7732-2.7733c0.3555-0.35556 0.3555-0.91556 0.0088-1.2622l-2.0798-2.08c-0.1778-0.16889-0.4-0.25778-0.6222-0.25778zm-9.5549 14.222-1.7066-1.7066 7.1639-7.1645 1.7066 1.7067-7.164 7.1644z" fill="#fff"/>
</svg>
