<svg viewBox="0 0 15 14" fill="#FEFFFE" xmlns="http://www.w3.org/2000/svg" id="icon">
<path opacity="0.7" d="M0.937451 2.28125C0.937451 1.90829 1.08561 1.5506 1.34933 1.28688C1.61306 1.02316 1.97074 0.875 2.3437 0.875H4.93495C5.83308 0.875 6.58495 1.4 7.10151 1.985C7.48589 2.42 7.94995 2.75 8.43745 2.75H12.6562C13.0292 2.75 13.3868 2.89816 13.6506 3.16188C13.9143 3.4256 14.0625 3.78329 14.0625 4.15625V4.75625C14.5968 5.00469 14.9437 5.5775 14.865 6.20562L14.265 11.0094C14.1941 11.5766 13.9183 12.0984 13.4896 12.4765C13.0609 12.8546 12.5088 13.063 11.9371 13.0625H3.06183C2.49051 13.0626 1.93884 12.854 1.51052 12.4759C1.0822 12.0978 0.806732 11.5763 0.735888 11.0094L0.135888 6.20562C0.0989255 5.9103 0.156616 5.61086 0.300656 5.35041C0.444696 5.08996 0.667658 4.88193 0.937451 4.75625V2.28125ZM1.87495 4.625H13.125V4.15625C13.125 4.03193 13.0756 3.9127 12.9877 3.82479C12.8997 3.73689 12.7805 3.6875 12.6562 3.6875H8.43745C7.5337 3.6875 6.83433 3.09781 6.39933 2.60562C5.97558 2.12562 5.4562 1.8125 4.93495 1.8125H2.3437C2.21938 1.8125 2.10015 1.86189 2.01224 1.94979C1.92434 2.0377 1.87495 2.15693 1.87495 2.28125V4.625ZM1.53089 5.5625C1.46444 5.56252 1.39875 5.57667 1.33818 5.60401C1.27761 5.63134 1.22354 5.67125 1.17957 5.72107C1.1356 5.7709 1.10272 5.8295 1.08312 5.893C1.06352 5.9565 1.05765 6.02343 1.06589 6.08937L1.66589 10.8931C1.7084 11.2333 1.87374 11.5463 2.13081 11.7731C2.38788 12 2.71897 12.1251 3.06183 12.125H11.9381C12.2809 12.1251 12.612 12 12.8691 11.7731C13.1262 11.5463 13.2915 11.2333 13.334 10.8931L13.934 6.08937C13.9423 6.02343 13.9364 5.9565 13.9168 5.893C13.8972 5.8295 13.8643 5.7709 13.8203 5.72107C13.7764 5.67125 13.7223 5.63134 13.6617 5.60401C13.6012 5.57667 13.5355 5.56252 13.469 5.5625H1.53089Z" fill="#FEFFFE" stroke="#FEFFFE" stroke-width="0.75"/>
</svg>
