<svg xmlns="http://www.w3.org/2000/svg" viewBox="0 0 16 16" id="icon"><path style="fill:#dc3c3b" d="M15 2V1h-1V0H2v1H1v1H0v12h1v1h1v1h12v-1h1v-1h1V2z"/><g style="fill:#c93332"><path d="M2 0h12v1H2zM1 1h1v1H1zM14 1h1v1h-1zM15 2h1v12h-1zM14 14h1v1h-1zM2 15h12v1H2zM1 14h1v1H1zM0 2h1v12H0z"/></g><g style="fill:#e16564"><path d="M2 11h1v2H2zM3 13h2v1H3zM11 2h2v1h-2zM13 3h1v2h-1z"/></g><path style="fill:#e0e1e0" d="M12 7V6h-2V5H8V4H6V3H4v9h2v-1h2v-1h2V9h2V8h1V7z"/><g style="fill:#c1c2d0"><path d="M4 3h2v1H4zM6 4h2v1H6zM8 5h2v1H8zM10 6h2v1h-2zM12 7h1v1h-1z"/></g></svg>