<svg version="1.1" id="icon" xmlns="http://www.w3.org/2000/svg" viewBox="0 0 16 16">
  <polygon points="15,2 15,1 14,1 14,0 2,0 2,1 1,1 1,2 0,2 0,3 0,14 1,14 1,15 2,15 2,16 6,16 6,15 6,14 4,14 4,13 3,13 3,12 2,12 2,5 3,5 3,3 4,3 4,2 5,2 5,3 6,3 6,4 7,4 7,3 8,3 9,3 9,4 10,4 10,3 11,3 11,2 12,2 12,3 13,3 13,4 13,5 14,5 14,12 13,12 13,13 12,13 12,14 10,14 10,15 10,16 14,16 14,15 15,15 15,14 16,14 16,2 "/>
  <polygon points="2,0 2,1 1,1 1,2 0,2 0,14 1,14 1,3 2,3 2,2 3,2 3,1 14,1 14,0" style="fill:#262736;"/>
  <polygon points="13,5 13,4 13,3 12,3 12,2 11,2 11,3 10,3 10,4 9,4 9,3 8,3 7,3 7,4 6,4 6,3 5,3 5,2 4,2 4,3 3,3 3,4 3,5 2,5 2,12 3,12 3,13 4,13 4,14 6,14 6,16 10,16 10,14 12,14 12,13 13,13 13,12 14,12 14,5" style="fill:#FFFFFF;"/>
</svg>
