<svg version="1.1" id="icon" xmlns="http://www.w3.org/2000/svg" viewBox="0 0 16 16">
	<polygon style="fill:#81DBFF" points="14,8 14,7 13,7 10,7 9,7 9,8 9,9 10,9 12,9 12,10 12,11 10,11 10,12 10,13 11,13 12,13 12,14 13,14 13,13 14,13 14,12 15,12 15,8"/>
	<polygon style="fill:#19D4A5" points="10,12 5,12 5,11 4,11 3,11 3,10 2,10 1,10 1,11 1,12 2,12 2,13 3,13 3,14 4,14 4,15 5,15 6,15 10,15 11,15 11,14 13,14 13,12"/>
	<polygon style="fill:#FFF576" points="3,7 3,6 3,5 2,5 1,5 1,6 1,7 1,10 1,11 1,12 2,12 2,11 3,11 4,11 4,7"/>
	<polygon style="fill:#FF8B80" points="13,3 13,2 12,2 12,1 11,1 10,1 7,1 5,1 4,1 4,2 3,2 3,3 2,3 2,4 1,4 1,5 1,6 2,6 2,7 3,7 4,7 4,5 5,5 5,4 11,4 11,5 12,5 14,5 14,3"/>
</svg>
