<svg xmlns="http://www.w3.org/2000/svg" width="272" height="272" id="icon" style="shape-rendering:geometricPrecision;fill-rule:evenodd;clip-rule:evenodd">
    <path style="opacity:1" fill="#66fbfe" d="M111.5-.5h16v16h-16v-16z"/>
    <path style="opacity:1" fill="#feffea" d="M127.5-.5h16v16h-16v-16z"/>
    <path style="opacity:1" fill="#66fbfe" d="M143.5-.5h16v16h-16v-16zM79.5 31.5h-16v-16h16v16zM111.5 15.5v16h-16v-16h16z"/>
    <path style="opacity:1" fill="#feffea" d="M111.5 15.5h16v16h-16v-16z"/>
    <path style="opacity:1" fill="#66fbfe" d="M127.5 15.5h16v16h-16v-16z"/>
    <path style="opacity:1" fill="#feffea" d="M143.5 15.5h16v16h-16v-16z"/>
    <path style="opacity:1" fill="#66fbfe" d="M159.5 15.5h16v16h-16v-16zM207.5 31.5h-16v-16h16v16zM63.5 31.5v16h-16v-16h16z"/>
    <path style="opacity:1" fill="#feffea" d="M63.5 31.5h16v16h-16v-16z"/>
    <path style="opacity:1" fill="#66fbfe" d="M111.5 31.5h16v16h-16v-16z"/>
    <path style="opacity:1" fill="#feffea" d="M127.5 31.5h16v16h-16v-16z"/>
    <path style="opacity:1" fill="#66fbfe" d="M143.5 31.5h16v16h-16v-16z"/>
    <path style="opacity:1" fill="#feffea" d="M191.5 31.5h16v16h-16v-16z"/>
    <path style="opacity:1" fill="#66fbfe" d="M207.5 31.5h16v16h-16v-16zM47.5 47.5v16h-16v-16h16zM63.5 47.5h16v16h-16v-16z"/>
    <path style="opacity:1" fill="#00dee4" d="M111.5 47.5v16h-16v-16h16z"/>
    <path style="opacity:1" fill="#66fbfe" d="M127.5 47.5h16v16h-16v-16z"/>
    <path style="opacity:1" fill="#00dee4" d="M159.5 47.5h16v16-16h-16z"/>
    <path style="opacity:1" fill="#66fbfe" d="M191.5 47.5h16v16h-16v-16zM223.5 47.5h16v16h-16v-16zM31.5 63.5v16h-16v-16h16z"/>
    <path style="opacity:1" fill="#feffea" d="M31.5 63.5h16v16h-16v-16z"/>
    <path style="opacity:1" fill="#66fbfe" d="M47.5 63.5h16v16h-16v-16z"/>
    <path style="opacity:1" fill="#00dee4" d="M63.5 63.5h16v16h-16v-16z"/>
    <path style="opacity:1" fill="#66fbfe" d="M79.5 63.5h16v16h-16v-16z"/>
    <path style="opacity:1" fill="#00dee4" d="M127.5 63.5h16v16h-16v-16z"/>
    <path style="opacity:1" fill="#66fbfe" d="M175.5 63.5h16v16h-16v-16z"/>
    <path style="opacity:1" fill="#00dee4" d="M191.5 63.5h16v16h-16v-16z"/>
    <path style="opacity:1" fill="#66fbfe" d="M207.5 63.5h16v16h-16v-16z"/>
    <path style="opacity:1" fill="#feffea" d="M223.5 63.5h16v16h-16v-16z"/>
    <path style="opacity:1" fill="#66fbfe" d="M239.5 63.5h16v16h-16v-16zM63.5 79.5h16v16h-16v-16z"/>
    <path style="opacity:1" fill="#00dee4" d="M79.5 79.5h16v16h-16v-16z"/>
    <path style="opacity:1" fill="#66fbfe" d="M95.5 79.5h16v16h-16v-16zM127.5 79.5h16v16h-16v-16zM175.5 79.5v16h-16v-16h16z"/>
    <path style="opacity:1" fill="#00dee4" d="M175.5 79.5h16v16h-16v-16z"/>
    <path style="opacity:1" fill="#66fbfe" d="M191.5 79.5h16v16h-16v-16zM31.5 111.5h-16v-16h16v16z"/>
    <path style="opacity:1" fill="#00dee4" d="M63.5 95.5v16h-16v-16h16z"/>
    <path style="opacity:1" fill="#66fbfe" d="M79.5 95.5h16v16h-16v-16z"/>
    <path style="opacity:1" fill="#feffea" d="M95.5 95.5h16v16h-16v-16z"/>
    <path style="opacity:1" fill="#66fbfe" d="M111.5 95.5h16v16h-16v-16z"/>
    <path style="opacity:1" fill="#feffea" d="M127.5 95.5h16v16h-16v-16z"/>
    <path style="opacity:1" fill="#66fbfe" d="M143.5 95.5h16v16h-16v-16z"/>
    <path style="opacity:1" fill="#feffea" d="M159.5 95.5h16v16h-16v-16z"/>
    <path style="opacity:1" fill="#66fbfe" d="M175.5 95.5h16v16h-16v-16zM207.5 95.5h16v16-16h-16zM255.5 111.5h-16v-16h16v16zM-.5 111.5h16v16h-16v-16z"/>
    <path style="opacity:1" fill="#feffea" d="M15.5 111.5h16v16h-16v-16z"/>
    <path style="opacity:1" fill="#66fbfe" d="M31.5 111.5h16v16h-16v-16zM95.5 111.5h16v16h-16v-16zM127.5 111.5h16v16h-16v-16zM159.5 111.5h16v16h-16v-16zM223.5 111.5h16v16h-16v-16z"/>
    <path style="opacity:1" fill="#feffea" d="M239.5 111.5h16v16h-16v-16z"/>
    <path style="opacity:1" fill="#66fbfe" d="M255.5 111.5h16v16h-16v-16z"/>
    <path style="opacity:1" fill="#feffea" d="M-.5 127.5h16v16h-16v-16z"/>
    <path style="opacity:1" fill="#66fbfe" d="M15.5 127.5h16v16h-16v-16z"/>
    <path style="opacity:1" fill="#feffea" d="M31.5 127.5h16v16h-16v-16z"/>
    <path style="opacity:1" fill="#66fbfe" d="M47.5 127.5h16v16h-16v-16z"/>
    <path style="opacity:1" fill="#00dee4" d="M63.5 127.5h16v16h-16v-16z"/>
    <path style="opacity:1" fill="#66fbfe" d="M79.5 127.5h16v16h-16v-16z"/>
    <path style="opacity:1" fill="#feffea" d="M95.5 127.5h16v16h-16v-16z"/>
    <path style="opacity:1" fill="#66fbfe" d="M111.5 127.5h16v16h-16v-16zM143.5 127.5h16v16h-16v-16z"/>
    <path style="opacity:1" fill="#feffea" d="M159.5 127.5h16v16h-16v-16z"/>
    <path style="opacity:1" fill="#66fbfe" d="M175.5 127.5h16v16h-16v-16z"/>
    <path style="opacity:1" fill="#00dee4" d="M191.5 127.5h16v16h-16v-16z"/>
    <path style="opacity:1" fill="#66fbfe" d="M207.5 127.5h16v16h-16v-16z"/>
    <path style="opacity:1" fill="#feffea" d="M223.5 127.5h16v16h-16v-16z"/>
    <path style="opacity:1" fill="#66fbfe" d="M239.5 127.5h16v16h-16v-16z"/>
    <path style="opacity:1" fill="#feffea" d="M255.5 127.5h16v16h-16v-16z"/>
    <path style="opacity:1" fill="#66fbfe" d="M-.5 143.5h16v16h-16v-16z"/>
    <path style="opacity:1" fill="#feffea" d="M15.5 143.5h16v16h-16v-16z"/>
    <path style="opacity:1" fill="#66fbfe" d="M31.5 143.5h16v16h-16v-16zM95.5 143.5h16v16h-16v-16zM127.5 143.5h16v16h-16v-16zM159.5 143.5h16v16h-16v-16zM223.5 143.5h16v16h-16v-16z"/>
    <path style="opacity:1" fill="#feffea" d="M239.5 143.5h16v16h-16v-16z"/>
    <path style="opacity:1" fill="#66fbfe" d="M255.5 143.5h16v16h-16v-16zM15.5 159.5h16v16h-16v-16z"/>
    <path style="opacity:1" fill="#00dee4" d="M47.5 159.5h16v16-16h-16z"/>
    <path style="opacity:1" fill="#66fbfe" d="M95.5 159.5v16h-16v-16h16z"/>
    <path style="opacity:1" fill="#feffea" d="M95.5 159.5h16v16h-16v-16z"/>
    <path style="opacity:1" fill="#66fbfe" d="M111.5 159.5h16v16h-16v-16z"/>
    <path style="opacity:1" fill="#feffea" d="M127.5 159.5h16v16h-16v-16z"/>
    <path style="opacity:1" fill="#66fbfe" d="M143.5 159.5h16v16h-16v-16z"/>
    <path style="opacity:1" fill="#feffea" d="M159.5 159.5h16v16h-16v-16z"/>
    <path style="opacity:1" fill="#66fbfe" d="M175.5 159.5h16v16h-16v-16z"/>
    <path style="opacity:1" fill="#00dee4" d="M223.5 159.5v16h-16v-16h16z"/>
    <path style="opacity:1" fill="#66fbfe" d="M239.5 159.5h16v16h-16v-16zM63.5 175.5h16v16h-16v-16z"/>
    <path style="opacity:1" fill="#00dee4" d="M79.5 175.5h16v16h-16v-16z"/>
    <path style="opacity:1" fill="#66fbfe" d="M95.5 175.5h16v16h-16v-16zM127.5 175.5h16v16h-16v-16zM159.5 175.5h16v16h-16v-16z"/>
    <path style="opacity:1" fill="#00dee4" d="M175.5 175.5h16v16h-16v-16z"/>
    <path style="opacity:1" fill="#66fbfe" d="M191.5 175.5h16v16h-16v-16zM31.5 191.5v16h-16v-16h16z"/>
    <path style="opacity:1" fill="#feffea" d="M31.5 191.5h16v16h-16v-16z"/>
    <path style="opacity:1" fill="#66fbfe" d="M47.5 191.5h16v16h-16v-16z"/>
    <path style="opacity:1" fill="#00dee4" d="M63.5 191.5h16v16h-16v-16z"/>
    <path style="opacity:1" fill="#66fbfe" d="M79.5 191.5h16v16h-16v-16z"/>
    <path style="opacity:1" fill="#00dee4" d="M127.5 191.5h16v16h-16v-16z"/>
    <path style="opacity:1" fill="#66fbfe" d="M175.5 191.5h16v16h-16v-16z"/>
    <path style="opacity:1" fill="#00dee4" d="M191.5 191.5h16v16h-16v-16z"/>
    <path style="opacity:1" fill="#66fbfe" d="M207.5 191.5h16v16h-16v-16z"/>
    <path style="opacity:1" fill="#feffea" d="M223.5 191.5h16v16h-16v-16z"/>
    <path style="opacity:1" fill="#66fbfe" d="M239.5 191.5h16v16h-16v-16zM31.5 207.5h16v16h-16v-16zM63.5 207.5h16v16h-16v-16z"/>
    <path style="opacity:1" fill="#00dee4" d="M95.5 207.5h16v16-16h-16z"/>
    <path style="opacity:1" fill="#66fbfe" d="M127.5 207.5h16v16h-16v-16z"/>
    <path style="opacity:1" fill="#00dee4" d="M175.5 207.5v16h-16v-16h16z"/>
    <path style="opacity:1" fill="#66fbfe" d="M191.5 207.5h16v16h-16v-16zM223.5 207.5h16v16h-16v-16zM47.5 223.5h16v16h-16v-16z"/>
    <path style="opacity:1" fill="#feffea" d="M63.5 223.5h16v16h-16v-16z"/>
    <path style="opacity:1" fill="#66fbfe" d="M111.5 223.5h16v16h-16v-16z"/>
    <path style="opacity:1" fill="#feffea" d="M127.5 223.5h16v16h-16v-16z"/>
    <path style="opacity:1" fill="#66fbfe" d="M143.5 223.5h16v16h-16v-16z"/>
    <path style="opacity:1" fill="#feffea" d="M191.5 223.5h16v16h-16v-16z"/>
    <path style="opacity:1" fill="#66fbfe" d="M207.5 223.5h16v16h-16v-16zM63.5 239.5h16v16h-16v-16zM111.5 239.5v16h-16v-16h16z"/>
    <path style="opacity:1" fill="#feffea" d="M111.5 239.5h16v16h-16v-16z"/>
    <path style="opacity:1" fill="#66fbfe" d="M127.5 239.5h16v16h-16v-16z"/>
    <path style="opacity:1" fill="#feffea" d="M143.5 239.5h16v16h-16v-16z"/>
    <path style="opacity:1" fill="#66fbfe" d="M159.5 239.5h16v16h-16v-16zM191.5 239.5h16v16h-16v-16zM111.5 255.5h16v16h-16v-16z"/>
    <path style="opacity:1" fill="#feffea" d="M127.5 255.5h16v16h-16v-16z"/>
    <path style="opacity:1" fill="#66fbfe" d="M143.5 255.5h16v16h-16v-16z"/>
</svg>