<svg version="1.1" id="icon" xmlns="http://www.w3.org/2000/svg" viewBox="0 0 16 16">
  <polygon points="15,2 15,1 14,1 14,0 2,0 2,1 1,1 1,2 0,2 0,14 1,14 1,15 2,15 2,16 14,16 14,15 15,15 15,14 16,14 16,13 16,2" style="fill:#DC3C3B;"/>
  <g style="fill:#C93332;">
  	<rect x="2" width="12" height="1"/>
  	<rect x="1" y="1" width="1" height="1"/>
  	<rect x="14" y="1" width="1" height="1"/>
  	<rect x="15" y="2" width="1" height="12"/>
  	<rect x="14" y="14" width="1" height="1"/>
  	<rect x="2" y="15" width="12" height="1"/>
  	<rect x="1" y="14" width="1" height="1"/>
  	<rect y="2" width="1" height="12"/>
  </g>
  <g style="fill:#E16564;">
  	<rect x="2" y="11" width="1" height="2"/>
  	<rect x="3" y="13" width="2" height="1"/>
  	<rect x="11" y="2" width="2" height="1"/>
  	<rect x="13" y="3" width="1" height="2"/>
  </g>
  <polygon points="12,7 12,6 10,6 10,5 8,5 8,4 6,4 6,3 4,3 4,4 4,12 6,12 6,11 8,11 8,10 10,10 10,9 12,9 12,8 13,8 13,7" style="fill:#E0E1E0;"/>
  <g style="fill:#C1C2D0;">
  	<rect x="4" y="3" width="2" height="1"/>
  	<rect x="6" y="4" width="2" height="1"/>
  	<rect x="8" y="5" width="2" height="1"/>
  	<rect x="10" y="6" width="2" height="1"/>
  	<rect x="12" y="7" width="1" height="1"/>
  </g>
</svg>
