<svg width="20" height="21" viewBox="0 0 20 21" fill="none" xmlns="http://www.w3.org/2000/svg">
<path d="M15.2897 4.64222L16.1074 5.46L13.7165 7.85111L12.8988 7.03333L15.2897 4.64222ZM15.2986 2.5C15.0675 2.5 14.8453 2.58889 14.6675 2.75778L11.8944 5.53111L10.179 3.83333L8.92572 5.08667L10.1879 6.34889L2.25952 14.2778V18.5H6.48145L14.4098 10.5711L15.6719 11.8333L16.9252 10.58L15.2186 8.87333L17.9918 6.1C18.3473 5.74444 18.3473 5.18444 18.0006 4.83778L15.9208 2.75778C15.743 2.58889 15.5208 2.5 15.2986 2.5ZM5.74372 16.7222L4.03717 15.0156L11.2011 7.85111L12.9077 9.55778L5.74372 16.7222Z" fill="white"/>
</svg>
