<svg version="1.1" id="Layer_1" xmlns="http://www.w3.org/2000/svg" xmlns:xlink="http://www.w3.org/1999/xlink" x="0px" y="0px"
	 width="100%" viewBox="0 0 256 256" enable-background="new 0 0 256 256" xml:space="preserve">
<path fill="#473B78" opacity="1.000000" stroke="none" 
	d="
M257.000000,17.000000 
	C257.000000,91.354225 257.000000,165.708450 256.532806,240.531342 
	C252.284149,241.003021 248.498505,241.116074 244.722641,240.972244 
	C241.986298,240.868027 240.870300,241.879120 240.971161,244.670578 
	C241.119476,248.775360 241.003418,252.889725 241.000000,257.000000 
	C166.645767,257.000000 92.291542,257.000000 17.468658,256.532806 
	C16.996979,252.284149 16.883940,248.498505 17.027754,244.722641 
	C17.131973,241.986313 16.120905,240.870300 13.329423,240.971176 
	C9.224628,241.119507 5.110279,241.003418 1.000000,241.000000 
	C1.000000,166.645767 1.000000,92.291542 1.467192,17.468658 
	C5.715844,16.996979 9.501495,16.883928 13.277361,17.027754 
	C16.013706,17.131987 17.129700,16.120863 17.028839,13.329424 
	C16.880522,9.224627 16.996571,5.110279 17.000000,1.000000 
	C91.354225,1.000000 165.708450,1.000000 240.531342,1.467192 
	C241.003021,5.715845 241.116119,9.501498 240.972260,13.277363 
	C240.868011,16.013741 241.879166,17.129694 244.670578,17.028843 
	C248.775360,16.880539 252.889725,16.996572 257.000000,17.000000 
M17.000000,46.512970 
	C17.000000,102.317970 16.999969,158.122971 17.000027,213.927979 
	C17.000038,224.606842 17.000193,224.606979 27.872047,225.008301 
	C28.204933,225.020584 28.538965,225.042023 28.871111,225.027740 
	C31.875193,224.898743 33.082745,226.455170 32.985477,229.322372 
	C32.934692,230.819519 32.993313,232.320358 33.000237,233.819519 
	C33.033264,240.973114 33.032986,240.995239 40.267414,240.996048 
	C97.571716,241.002487 154.876022,240.999832 212.180328,240.999985 
	C224.174774,241.000015 224.267258,241.005554 224.963379,229.373474 
	C225.156204,226.151154 226.476654,224.849182 229.573898,225.005371 
	C230.902832,225.072388 232.238525,225.004837 233.571136,224.999863 
	C240.979233,224.972214 240.996353,224.972366 240.996994,217.481232 
	C241.002029,159.677185 240.999939,101.873131 240.999969,44.069077 
	C240.999985,33.394348 240.999817,33.394215 230.124985,32.991657 
	C229.792114,32.979336 229.458069,32.957954 229.125916,32.972164 
	C226.119949,33.100800 224.917282,31.539810 225.014435,28.674658 
	C225.065201,27.177502 225.006699,25.676687 224.999756,24.177515 
	C224.966660,17.026800 224.966919,17.004747 217.729645,17.003948 
	C159.759003,16.997553 101.788368,16.995077 43.817730,17.004049 
	C31.415758,17.005968 33.005543,16.186550 33.047668,27.626398 
	C33.061382,31.351664 31.939251,32.997784 27.925505,33.069237 
	C16.997572,33.263763 17.000248,33.414101 17.000002,44.519703 
	C16.999994,44.852867 17.000000,45.186031 17.000000,46.512970 
z"/>
<path fill="#000000" opacity="1.000000" stroke="none" 
	d="
M16.528801,1.000000 
	C16.996571,5.110279 16.880522,9.224627 17.028839,13.329424 
	C17.129700,16.120863 16.013706,17.131987 13.277361,17.027754 
	C9.501495,16.883928 5.715844,16.996979 1.467192,17.000000 
	C1.000000,11.741570 1.000000,6.483139 1.000000,1.000000 
	C6.017719,1.000000 11.037662,1.000000 16.528801,1.000000 
z"/>
<path fill="#000000" opacity="1.000000" stroke="none" 
	d="
M257.000000,16.528801 
	C252.889725,16.996572 248.775360,16.880539 244.670578,17.028843 
	C241.879166,17.129694 240.868011,16.013741 240.972260,13.277363 
	C241.116119,9.501498 241.003021,5.715845 241.000000,1.467192 
	C246.258438,1.000000 251.516861,1.000000 257.000000,1.000000 
	C257.000000,6.017719 257.000000,11.037662 257.000000,16.528801 
z"/>
<path fill="#000000" opacity="1.000000" stroke="none" 
	d="
M1.000000,241.471191 
	C5.110279,241.003418 9.224628,241.119507 13.329423,240.971176 
	C16.120905,240.870300 17.131973,241.986313 17.027754,244.722641 
	C16.883940,248.498505 16.996979,252.284149 17.000000,256.532806 
	C11.741570,257.000000 6.483140,257.000000 1.000000,257.000000 
	C1.000000,251.982285 1.000000,246.962341 1.000000,241.471191 
z"/>
<path fill="#000000" opacity="1.000000" stroke="none" 
	d="
M241.471191,257.000000 
	C241.003418,252.889725 241.119476,248.775360 240.971161,244.670578 
	C240.870300,241.879120 241.986298,240.868027 244.722641,240.972244 
	C248.498505,241.116074 252.284149,241.003021 256.532806,241.000000 
	C257.000000,246.258438 257.000000,251.516861 257.000000,257.000000 
	C251.982285,257.000000 246.962341,257.000000 241.471191,257.000000 
z"/>
<path fill="#4B5BAB" opacity="1.000000" stroke="none" 
	d="
M17.000000,46.016083 
	C17.000000,45.186031 16.999994,44.852867 17.000002,44.519703 
	C17.000248,33.414101 16.997572,33.263763 27.925505,33.069237 
	C31.939251,32.997784 33.061382,31.351664 33.047668,27.626398 
	C33.005543,16.186550 31.415758,17.005968 43.817730,17.004049 
	C101.788368,16.995077 159.759003,16.997553 217.729645,17.003948 
	C224.966919,17.004747 224.966660,17.026800 224.999756,24.177515 
	C225.006699,25.676687 225.065201,27.177502 225.014435,28.674658 
	C224.917282,31.539810 226.119949,33.100800 229.125916,32.972164 
	C229.458069,32.957954 229.792114,32.979336 230.124985,32.991657 
	C240.999817,33.394215 240.999985,33.394348 240.999969,44.069077 
	C240.999939,101.873131 241.002029,159.677185 240.996994,217.481232 
	C240.996353,224.972366 240.979233,224.972214 233.571136,224.999863 
	C232.238525,225.004837 230.902832,225.072388 229.573898,225.005371 
	C226.476654,224.849182 225.156204,226.151154 224.963379,229.373474 
	C224.267258,241.005554 224.174774,241.000015 212.180328,240.999985 
	C154.876022,240.999832 97.571716,241.002487 40.267414,240.996048 
	C33.032986,240.995239 33.033264,240.973114 33.000237,233.819519 
	C32.993313,232.320358 32.934692,230.819519 32.985477,229.322372 
	C33.082745,226.455170 31.875193,224.898743 28.871111,225.027740 
	C28.538965,225.042023 28.204933,225.020584 27.872047,225.008301 
	C17.000193,224.606979 17.000038,224.606842 17.000027,213.927979 
	C16.999969,158.122971 17.000000,102.317970 17.000000,46.016083 
M133.500000,65.000000 
	C121.413628,65.000000 109.327263,65.000000 96.877632,65.000000 
	C96.877632,59.343258 96.877632,54.404926 96.877632,49.312431 
	C86.116127,49.312431 75.734123,49.312431 64.800842,49.312431 
	C64.800842,54.677105 64.800842,59.735962 64.800842,65.151367 
	C59.312771,65.151367 54.372917,65.151367 48.899025,65.151367 
	C48.899025,75.908592 48.899025,86.300789 48.899025,97.229034 
	C43.292549,97.229034 38.230244,97.229034 33.273300,97.229034 
	C33.273300,118.713020 33.273300,139.641129 33.273300,161.120514 
	C38.592400,161.120514 43.656101,161.120514 49.249245,161.120514 
	C49.249245,166.729813 49.249245,171.795135 49.249245,177.201111 
	C54.739128,177.201111 59.676579,177.201111 65.152969,177.201111 
	C65.152969,182.627090 65.152969,187.687561 65.152969,192.758911 
	C70.643188,192.758911 75.576096,192.758911 81.057152,192.758911 
	C81.057152,187.474030 81.057152,182.407425 81.057152,177.359863 
	C113.323082,177.359863 145.033157,177.359863 177.117813,177.359863 
	C177.117813,182.651993 177.117813,187.592834 177.117813,192.688187 
	C182.548035,192.688187 187.597488,192.688187 193.198120,192.688187 
	C193.198120,187.324142 193.198120,182.265244 193.198120,176.850006 
	C198.686340,176.850006 203.626465,176.850006 209.101868,176.850006 
	C209.101868,171.427994 209.101868,166.364319 209.101868,160.768829 
	C214.709656,160.768829 219.772308,160.768829 224.725616,160.768829 
	C224.725616,139.284775 224.725616,118.356636 224.725616,96.876770 
	C219.405746,96.876770 214.342606,96.876770 208.751038,96.876770 
	C208.751038,85.937866 208.751038,75.544868 208.751038,64.799690 
	C203.262207,64.799690 198.324600,64.799690 192.847473,64.799690 
	C192.847473,59.374470 192.847473,54.314331 192.847473,49.239285 
	C182.027115,49.239285 171.763138,49.239285 160.947418,49.239285 
	C160.947418,54.521694 160.947418,59.588558 160.947418,65.000000 
	C151.764313,65.000000 143.132156,65.000000 133.500000,65.000000 
z"/>
<path fill="#FFFFEB" opacity="1.000000" stroke="none" 
	d="
M134.000000,65.000000 
	C143.132156,65.000000 151.764313,65.000000 160.947418,65.000000 
	C160.947418,59.588558 160.947418,54.521694 160.947418,49.239285 
	C171.763138,49.239285 182.027115,49.239285 192.847473,49.239285 
	C192.847473,54.314331 192.847473,59.374470 192.847473,64.799690 
	C198.324600,64.799690 203.262207,64.799690 208.751038,64.799690 
	C208.751038,75.544868 208.751038,85.937866 208.751038,96.876770 
	C214.342606,96.876770 219.405746,96.876770 224.725616,96.876770 
	C224.725616,118.356636 224.725616,139.284775 224.725616,160.768829 
	C219.772308,160.768829 214.709656,160.768829 209.101868,160.768829 
	C209.101868,166.364319 209.101868,171.427994 209.101868,176.850006 
	C203.626465,176.850006 198.686340,176.850006 193.198120,176.850006 
	C193.198120,182.265244 193.198120,187.324142 193.198120,192.688187 
	C187.597488,192.688187 182.548035,192.688187 177.117813,192.688187 
	C177.117813,187.592834 177.117813,182.651993 177.117813,177.359863 
	C145.033157,177.359863 113.323082,177.359863 81.057152,177.359863 
	C81.057152,182.407425 81.057152,187.474030 81.057152,192.758911 
	C75.576096,192.758911 70.643188,192.758911 65.152969,192.758911 
	C65.152969,187.687561 65.152969,182.627090 65.152969,177.201111 
	C59.676579,177.201111 54.739128,177.201111 49.249245,177.201111 
	C49.249245,171.795135 49.249245,166.729813 49.249245,161.120514 
	C43.656101,161.120514 38.592400,161.120514 33.273300,161.120514 
	C33.273300,139.641129 33.273300,118.713020 33.273300,97.229034 
	C38.230244,97.229034 43.292549,97.229034 48.899025,97.229034 
	C48.899025,86.300789 48.899025,75.908592 48.899025,65.151367 
	C54.372917,65.151367 59.312771,65.151367 64.800842,65.151367 
	C64.800842,59.735962 64.800842,54.677105 64.800842,49.312431 
	C75.734123,49.312431 86.116127,49.312431 96.877632,49.312431 
	C96.877632,54.404926 96.877632,59.343258 96.877632,65.000000 
	C109.327263,65.000000 121.413628,65.000000 134.000000,65.000000 
M113.000000,122.398193 
	C113.000000,113.993607 113.000000,105.589020 113.000000,97.257095 
	C101.970482,97.257095 91.716957,97.257095 81.303711,97.257095 
	C81.303711,107.886856 81.303711,118.257561 81.303711,128.649078 
	C91.981880,128.649078 102.353020,128.649078 112.999985,128.649078 
	C112.999985,126.655777 112.999985,125.011887 113.000000,122.398193 
M155.530151,129.000000 
	C162.609207,129.000000 169.688263,129.000000 176.591721,129.000000 
	C176.591721,117.896408 176.591721,107.523613 176.591721,97.276978 
	C165.928085,97.276978 155.674530,97.276978 145.322144,97.276978 
	C145.322144,107.926788 145.322144,118.296753 145.322144,129.000000 
	C148.605606,129.000000 151.574677,129.000000 155.530151,129.000000 
z"/>
<path fill="#4B5BAB" opacity="1.000000" stroke="none" 
	d="
M112.999992,122.883095 
	C112.999985,125.011887 112.999985,126.655777 112.999985,128.649078 
	C102.353020,128.649078 91.981880,128.649078 81.303711,128.649078 
	C81.303711,118.257561 81.303711,107.886856 81.303711,97.257095 
	C91.716957,97.257095 101.970482,97.257095 113.000000,97.257095 
	C113.000000,105.589020 113.000000,113.993607 112.999992,122.883095 
z"/>
<path fill="#4B5BAB" opacity="1.000000" stroke="none" 
	d="
M155.036942,129.000000 
	C151.574677,129.000000 148.605606,129.000000 145.322144,129.000000 
	C145.322144,118.296753 145.322144,107.926788 145.322144,97.276978 
	C155.674530,97.276978 165.928085,97.276978 176.591721,97.276978 
	C176.591721,107.523613 176.591721,117.896408 176.591721,129.000000 
	C169.688263,129.000000 162.609207,129.000000 155.036942,129.000000 
z"/>
</svg>