<svg version="1.1" id="icon" xmlns="http://www.w3.org/2000/svg" viewBox="0 0 16 16">
  <polygon points="15,0 1,0 1,1 0,1 0,15 1,15 1,16 15,16 15,15 16,15 16,1 15,1" style="fill:#4B5BAB;"/>
  <path d="M15,1V0H1v1H0v1v12v1h1v1h14v-1h1v-1V2V1H15z M15,14h-1v1H2v-1H1V2h1V1h12v1h1V14z" style="fill:#463B78;"/>
  <path class="st2" d="M13,7V6V5h-1V4h-1h-1v1H9H8H7H6V4H5H4v1H3v1v1H2v1v1v1v1h1v1h1v1h1v-1h1h1h1h1h1h1v1h1v-1h1v-1h1v-1V9V8V7H13z M6,9H5V8V7h1h1v1v1H6z M9,8V7h1h1v1v1h-1H9V8z" style="fill:#FEFFEA;"/>
</svg>