<svg width="17" height="17" viewBox="0 0 17 17" fill="none" xmlns="http://www.w3.org/2000/svg">
<path fill-rule="evenodd" clip-rule="evenodd" d="M17 8.5C17 9.32843 16.3284 10 15.5 10H1.5C0.671573 10 0 9.32843 0 8.5V8.5C0 7.67157 0.671573 7 1.5 7H15.5C16.3284 7 17 7.67157 17 8.5V8.5Z" fill="white"/>
<path fill-rule="evenodd" clip-rule="evenodd" d="M8.5 17C7.67157 17 7 16.3284 7 15.5L7 1.5C7 0.671573 7.67157 -4.15634e-08 8.5 -2.67756e-08V-2.67756e-08C9.32843 -1.19878e-08 10 0.671573 10 1.5L10 15.5C10 16.3284 9.32843 17 8.5 17V17Z" fill="white"/>
</svg>
