<svg xmlns="http://www.w3.org/2000/svg" viewBox="0 -0.5 522 590" shape-rendering="crispEdges">
<metadata>Made with Pixels to Svg https://codepen.io/shshaw/pen/XbxvNj</metadata>
<path stroke="#ffffff" d="M242 50h32M242 51h32M242 52h32M242 53h32M242 54h32M242 55h32M242 56h32M242 57h32M242 58h32M242 59h32M242 60h32M242 61h32M242 62h32M242 63h32M242 64h32M242 65h32M242 66h32M242 67h32M242 68h32M242 69h32M242 70h32M242 71h32M242 72h32M242 73h32M242 74h32M242 75h32M242 76h32M242 77h32M242 78h32M242 79h32M242 80h32M242 81h32M82 82h32M210 82h96M402 82h32M82 83h32M210 83h96M402 83h32M82 84h32M210 84h96M402 84h32M82 85h32M210 85h96M402 85h32M82 86h32M210 86h96M402 86h32M82 87h32M210 87h96M402 87h32M82 88h32M210 88h96M402 88h32M82 89h32M210 89h96M402 89h32M82 90h32M210 90h96M402 90h32M82 91h32M210 91h96M402 91h32M82 92h32M210 92h96M402 92h32M82 93h32M210 93h96M402 93h32M82 94h32M210 94h96M402 94h32M82 95h32M210 95h96M402 95h32M82 96h32M210 96h96M402 96h32M82 97h32M210 97h96M402 97h32M82 98h32M210 98h96M402 98h32M82 99h32M210 99h96M402 99h32M82 100h32M210 100h96M402 100h32M82 101h32M210 101h96M402 101h32M82 102h32M210 102h96M402 102h32M82 103h32M210 103h96M402 103h32M82 104h32M210 104h96M402 104h32M82 105h32M210 105h96M402 105h32M82 106h32M210 106h96M402 106h32M82 107h32M210 107h96M402 107h32M82 108h32M210 108h96M402 108h32M82 109h32M210 109h96M402 109h32M82 110h32M210 110h96M402 110h32M82 111h32M210 111h96M402 111h32M82 112h32M210 112h96M402 112h32M82 113h32M210 113h96M402 113h32M50 114h64M242 114h32M402 114h64M50 115h64M242 115h32M402 115h64M50 116h64M242 116h32M402 116h64M50 117h64M242 117h32M402 117h64M50 118h64M242 118h32M402 118h64M50 119h64M242 119h32M402 119h64M50 120h64M242 120h32M402 120h64M50 121h64M242 121h32M402 121h64M50 122h64M242 122h32M402 122h64M50 123h64M242 123h32M402 123h64M50 124h64M242 124h32M402 124h64M50 125h64M242 125h32M402 125h64M50 126h64M242 126h32M402 126h64M50 127h64M242 127h32M402 127h64M50 128h64M242 128h32M402 128h64M50 129h64M242 129h32M402 129h64M50 130h64M242 130h32M402 130h64M50 131h64M242 131h32M402 131h64M50 132h64M242 132h32M402 132h64M50 133h64M242 133h32M402 133h64M50 134h64M242 134h32M402 134h64M50 135h64M242 135h32M402 135h64M50 136h64M242 136h32M402 136h64M50 137h64M242 137h32M402 137h64M50 138h64M242 138h32M402 138h64M50 139h64M242 139h32M402 139h64M50 140h64M242 140h32M402 140h64M50 141h64M242 141h32M402 141h64M50 142h64M242 142h32M402 142h64M50 143h64M242 143h32M402 143h64M50 144h64M242 144h32M402 144h64M50 145h64M242 145h32M402 145h64M114 146h32M242 146h32M370 146h32M114 147h32M242 147h32M370 147h32M114 148h32M242 148h32M370 148h32M114 149h32M242 149h32M370 149h32M114 150h32M242 150h32M370 150h32M114 151h32M242 151h32M370 151h32M114 152h32M242 152h32M370 152h32M114 153h32M242 153h32M370 153h32M114 154h32M242 154h32M370 154h32M114 155h32M242 155h32M370 155h32M114 156h32M242 156h32M370 156h32M114 157h32M242 157h32M370 157h32M114 158h32M242 158h32M370 158h32M114 159h32M242 159h32M370 159h32M114 160h32M242 160h32M370 160h32M114 161h32M242 161h32M370 161h32M114 162h32M242 162h32M370 162h32M114 163h32M242 163h32M370 163h32M114 164h32M242 164h32M370 164h32M114 165h32M242 165h32M370 165h32M114 166h32M242 166h32M370 166h32M114 167h32M242 167h32M370 167h32M114 168h32M242 168h32M370 168h32M114 169h32M242 169h32M370 169h32M114 170h32M242 170h32M370 170h32M114 171h32M242 171h32M370 171h32M114 172h32M242 172h32M370 172h32M114 173h32M242 173h32M370 173h32M114 174h32M242 174h32M370 174h32M114 175h32M242 175h32M370 175h32M114 176h32M242 176h32M370 176h32M114 177h32M242 177h32M370 177h32M146 178h32M242 178h32M338 178h32M146 179h32M242 179h32M338 179h32M146 180h32M242 180h32M338 180h32M146 181h32M242 181h32M338 181h32M146 182h32M242 182h32M338 182h32M146 183h32M242 183h32M338 183h32M146 184h32M242 184h32M338 184h32M146 185h32M242 185h32M338 185h32M146 186h32M242 186h32M338 186h32M146 187h32M242 187h32M338 187h32M146 188h32M242 188h32M338 188h32M146 189h32M242 189h32M338 189h32M146 190h32M242 190h32M338 190h32M146 191h32M242 191h32M338 191h32M146 192h32M242 192h32M338 192h32M146 193h32M242 193h32M338 193h32M146 194h32M242 194h32M338 194h32M146 195h32M242 195h32M338 195h32M146 196h32M242 196h32M338 196h32M146 197h32M242 197h32M338 197h32M146 198h32M242 198h32M338 198h32M146 199h32M242 199h32M338 199h32M146 200h32M242 200h32M338 200h32M146 201h32M242 201h32M338 201h32M146 202h32M242 202h32M338 202h32M146 203h32M242 203h32M338 203h32M146 204h32M242 204h32M338 204h32M146 205h32M242 205h32M338 205h32M146 206h32M242 206h32M338 206h32M146 207h32M242 207h32M338 207h32M146 208h32M242 208h32M338 208h32M146 209h32M242 209h32M338 209h32M178 210h32M242 210h32M306 210h32M178 211h32M242 211h32M306 211h32M178 212h32M242 212h32M306 212h32M178 213h32M242 213h32M306 213h32M178 214h32M242 214h32M306 214h32M178 215h32M242 215h32M306 215h32M178 216h32M242 216h32M306 216h32M178 217h32M242 217h32M306 217h32M178 218h32M242 218h32M306 218h32M178 219h32M242 219h32M306 219h32M178 220h32M242 220h32M306 220h32M178 221h32M242 221h32M306 221h32M178 222h32M242 222h32M306 222h32M178 223h32M242 223h32M306 223h32M178 224h32M242 224h32M306 224h32M178 225h32M242 225h32M306 225h32M178 226h32M242 226h32M306 226h32M178 227h32M242 227h32M306 227h32M178 228h32M242 228h32M306 228h32M178 229h32M242 229h32M306 229h32M178 230h32M242 230h32M306 230h32M178 231h32M242 231h32M306 231h32M178 232h32M242 232h32M306 232h32M178 233h32M242 233h32M306 233h32M178 234h32M242 234h32M306 234h32M178 235h32M242 235h32M306 235h32M178 236h32M242 236h32M306 236h32M178 237h32M242 237h32M306 237h32M178 238h32M242 238h32M306 238h32M178 239h32M242 239h32M306 239h32M178 240h32M242 240h32M306 240h32M178 241h32M242 241h32M306 241h32M50 242h32M210 242h96M434 242h32M50 243h32M210 243h96M434 243h32M50 244h32M210 244h96M434 244h32M50 245h32M210 245h96M434 245h32M50 246h32M210 246h96M434 246h32M50 247h32M210 247h96M434 247h32M50 248h32M210 248h96M434 248h32M50 249h32M210 249h96M434 249h32M50 250h32M210 250h96M434 250h32M50 251h32M210 251h96M434 251h32M50 252h32M210 252h96M434 252h32M50 253h32M210 253h96M434 253h32M50 254h32M210 254h96M434 254h32M50 255h32M210 255h96M434 255h32M50 256h32M210 256h96M434 256h32M50 257h32M210 257h96M434 257h32M50 258h32M210 258h96M434 258h32M50 259h32M210 259h96M434 259h32M50 260h32M210 260h96M434 260h32M50 261h32M210 261h96M434 261h32M50 262h32M210 262h96M434 262h32M50 263h32M210 263h96M434 263h32M50 264h32M210 264h96M434 264h32M50 265h32M210 265h96M434 265h32M50 266h32M210 266h96M434 266h32M50 267h32M210 267h96M434 267h32M50 268h32M210 268h96M434 268h32M50 269h32M210 269h96M434 269h32M50 270h32M210 270h96M434 270h32M50 271h32M210 271h96M434 271h32M50 272h32M210 272h96M434 272h32M50 273h32M210 273h96M434 273h32M18 274h480M18 275h480M18 276h480M18 277h480M18 278h480M18 279h480M18 280h480M18 281h480M18 282h480M18 283h480M18 284h480M18 285h480M18 286h480M18 287h480M18 288h480M18 289h480M18 290h480M18 291h480M18 292h480M18 293h480M18 294h480M18 295h480M18 296h480M18 297h480M18 298h480M18 299h480M18 300h480M18 301h480M18 302h480M18 303h480M18 304h480M18 305h480M50 306h32M210 306h96M434 306h32M50 307h32M210 307h96M434 307h32M50 308h32M210 308h96M434 308h32M50 309h32M210 309h96M434 309h32M50 310h32M210 310h96M434 310h32M50 311h32M210 311h96M434 311h32M50 312h32M210 312h96M434 312h32M50 313h32M210 313h96M434 313h32M50 314h32M210 314h96M434 314h32M50 315h32M210 315h96M434 315h32M50 316h32M210 316h96M434 316h32M50 317h32M210 317h96M434 317h32M50 318h32M210 318h96M434 318h32M50 319h32M210 319h96M434 319h32M50 320h32M210 320h96M434 320h32M50 321h32M210 321h96M434 321h32M50 322h32M210 322h96M434 322h32M50 323h32M210 323h96M434 323h32M50 324h32M210 324h96M434 324h32M50 325h32M210 325h96M434 325h32M50 326h32M210 326h96M434 326h32M50 327h32M210 327h96M434 327h32M50 328h32M210 328h96M434 328h32M50 329h32M210 329h96M434 329h32M50 330h32M210 330h96M434 330h32M50 331h32M210 331h96M434 331h32M50 332h32M210 332h96M434 332h32M50 333h32M210 333h96M434 333h32M50 334h32M210 334h96M434 334h32M50 335h32M210 335h96M434 335h32M50 336h32M210 336h96M434 336h32M50 337h32M210 337h96M434 337h32M178 338h32M242 338h32M306 338h32M178 339h32M242 339h32M306 339h32M178 340h32M242 340h32M306 340h32M178 341h32M242 341h32M306 341h32M178 342h32M242 342h32M306 342h32M178 343h32M242 343h32M306 343h32M178 344h32M242 344h32M306 344h32M178 345h32M242 345h32M306 345h32M178 346h32M242 346h32M306 346h32M178 347h32M242 347h32M306 347h32M178 348h32M242 348h32M306 348h32M178 349h32M242 349h32M306 349h32M178 350h32M242 350h32M306 350h32M178 351h32M242 351h32M306 351h32M178 352h32M242 352h32M306 352h32M178 353h32M242 353h32M306 353h32M178 354h32M242 354h32M306 354h32M178 355h32M242 355h32M306 355h32M178 356h32M242 356h32M306 356h32M178 357h32M242 357h32M306 357h32M178 358h32M242 358h32M306 358h32M178 359h32M242 359h32M306 359h32M178 360h32M242 360h32M306 360h32M178 361h32M242 361h32M306 361h32M178 362h32M242 362h32M306 362h32M178 363h32M242 363h32M306 363h32M178 364h32M242 364h32M306 364h32M178 365h32M242 365h32M306 365h32M178 366h32M242 366h32M306 366h32M178 367h32M242 367h32M306 367h32M178 368h32M242 368h32M306 368h32M178 369h32M242 369h32M306 369h32M146 370h32M242 370h32M338 370h32M146 371h32M242 371h32M338 371h32M146 372h32M242 372h32M338 372h32M146 373h32M242 373h32M338 373h32M146 374h32M242 374h32M338 374h32M146 375h32M242 375h32M338 375h32M146 376h32M242 376h32M338 376h32M146 377h32M242 377h32M338 377h32M146 378h32M242 378h32M338 378h32M146 379h32M242 379h32M338 379h32M146 380h32M242 380h32M338 380h32M146 381h32M242 381h32M338 381h32M146 382h32M242 382h32M338 382h32M146 383h32M242 383h32M338 383h32M146 384h32M242 384h32M338 384h32M146 385h32M242 385h32M338 385h32M146 386h32M242 386h32M338 386h32M146 387h32M242 387h32M338 387h32M146 388h32M242 388h32M338 388h32M146 389h32M242 389h32M338 389h32M146 390h32M242 390h32M338 390h32M146 391h32M242 391h32M338 391h32M146 392h32M242 392h32M338 392h32M146 393h32M242 393h32M338 393h32M146 394h32M242 394h32M338 394h32M146 395h32M242 395h32M338 395h32M146 396h32M242 396h32M338 396h32M146 397h32M242 397h32M338 397h32M146 398h32M242 398h32M338 398h32M146 399h32M242 399h32M338 399h32M146 400h32M242 400h32M338 400h32M146 401h32M242 401h32M338 401h32M114 402h32M242 402h32M370 402h32M114 403h32M242 403h32M370 403h32M114 404h32M242 404h32M370 404h32M114 405h32M242 405h32M370 405h32M114 406h32M242 406h32M370 406h32M114 407h32M242 407h32M370 407h32M114 408h32M242 408h32M370 408h32M114 409h32M242 409h32M370 409h32M114 410h32M242 410h32M370 410h32M114 411h32M242 411h32M370 411h32M114 412h32M242 412h32M370 412h32M114 413h32M242 413h32M370 413h32M114 414h32M242 414h32M370 414h32M114 415h32M242 415h32M370 415h32M114 416h32M242 416h32M370 416h32M114 417h32M242 417h32M370 417h32M114 418h32M242 418h32M370 418h32M114 419h32M242 419h32M370 419h32M114 420h32M242 420h32M370 420h32M114 421h32M242 421h32M370 421h32M114 422h32M242 422h32M370 422h32M114 423h32M242 423h32M370 423h32M114 424h32M242 424h32M370 424h32M114 425h32M242 425h32M370 425h32M114 426h32M242 426h32M370 426h32M114 427h32M242 427h32M370 427h32M114 428h32M242 428h32M370 428h32M114 429h32M242 429h32M370 429h32M114 430h32M242 430h32M370 430h32M114 431h32M242 431h32M370 431h32M114 432h32M242 432h32M370 432h32M114 433h32M242 433h32M370 433h32M50 434h64M242 434h32M402 434h64M50 435h64M242 435h32M402 435h64M50 436h64M242 436h32M402 436h64M50 437h64M242 437h32M402 437h64M50 438h64M242 438h32M402 438h64M50 439h64M242 439h32M402 439h64M50 440h64M242 440h32M402 440h64M50 441h64M242 441h32M402 441h64M50 442h64M242 442h32M402 442h64M50 443h64M242 443h32M402 443h64M50 444h64M242 444h32M402 444h64M50 445h64M242 445h32M402 445h64M50 446h64M242 446h32M402 446h64M50 447h64M242 447h32M402 447h64M50 448h64M242 448h32M402 448h64M50 449h64M242 449h32M402 449h64M50 450h64M242 450h32M402 450h64M50 451h64M242 451h32M402 451h64M50 452h64M242 452h32M402 452h64M50 453h64M242 453h32M402 453h64M50 454h64M242 454h32M402 454h64M50 455h64M242 455h32M402 455h64M50 456h64M242 456h32M402 456h64M50 457h64M242 457h32M402 457h64M50 458h64M242 458h32M402 458h64M50 459h64M242 459h32M402 459h64M50 460h64M242 460h32M402 460h64M50 461h64M242 461h32M402 461h64M50 462h64M242 462h32M402 462h64M50 463h64M242 463h32M402 463h64M50 464h64M242 464h32M402 464h64M50 465h64M242 465h32M402 465h64M82 466h32M210 466h96M402 466h32M82 467h32M210 467h96M402 467h32M82 468h32M210 468h96M402 468h32M82 469h32M210 469h96M402 469h32M82 470h32M210 470h96M402 470h32M82 471h32M210 471h96M402 471h32M82 472h32M210 472h96M402 472h32M82 473h32M210 473h96M402 473h32M82 474h32M210 474h96M402 474h32M82 475h32M210 475h96M402 475h32M82 476h32M210 476h96M402 476h32M82 477h32M210 477h96M402 477h32M82 478h32M210 478h96M402 478h32M82 479h32M210 479h96M402 479h32M82 480h32M210 480h96M402 480h32M82 481h32M210 481h96M402 481h32M82 482h32M210 482h96M402 482h32M82 483h32M210 483h96M402 483h32M82 484h32M210 484h96M402 484h32M82 485h32M210 485h96M402 485h32M82 486h32M210 486h96M402 486h32M82 487h32M210 487h96M402 487h32M82 488h32M210 488h96M402 488h32M82 489h32M210 489h96M402 489h32M82 490h32M210 490h96M402 490h32M82 491h32M210 491h96M402 491h32M82 492h32M210 492h96M402 492h32M82 493h32M210 493h96M402 493h32M82 494h32M210 494h96M402 494h32M82 495h32M210 495h96M402 495h32M82 496h32M210 496h96M402 496h32M82 497h32M210 497h96M402 497h32M242 498h32M242 499h32M242 500h32M242 501h32M242 502h32M242 503h32M242 504h32M242 505h32M242 506h32M242 507h32M242 508h32M242 509h32M242 510h32M242 511h32M242 512h32M242 513h32M242 514h32M242 515h32M242 516h32M242 517h32M242 518h32M242 519h32M242 520h32M242 521h32M242 522h32M242 523h32M242 524h32M242 525h32M242 526h32M242 527h32M242 528h32M242 529h32" />
<path stroke="#7fd3fb" d="M114 114h32M210 114h32M274 114h32M370 114h32M114 115h32M210 115h32M274 115h32M370 115h32M114 116h32M210 116h32M274 116h32M370 116h32M114 117h32M210 117h32M274 117h32M370 117h32M114 118h32M210 118h32M274 118h32M370 118h32M114 119h32M210 119h32M274 119h32M370 119h32M114 120h32M210 120h32M274 120h32M370 120h32M114 121h32M210 121h32M274 121h32M370 121h32M114 122h32M210 122h32M274 122h32M370 122h32M114 123h32M210 123h32M274 123h32M370 123h32M114 124h32M210 124h32M274 124h32M370 124h32M114 125h32M210 125h32M274 125h32M370 125h32M114 126h32M210 126h32M274 126h32M370 126h32M114 127h32M210 127h32M274 127h32M370 127h32M114 128h32M210 128h32M274 128h32M370 128h32M114 129h32M210 129h32M274 129h32M370 129h32M114 130h32M210 130h32M274 130h32M370 130h32M114 131h32M210 131h32M274 131h32M370 131h32M114 132h32M210 132h32M274 132h32M370 132h32M114 133h32M210 133h32M274 133h32M370 133h32M114 134h32M210 134h32M274 134h32M370 134h32M114 135h32M210 135h32M274 135h32M370 135h32M114 136h32M210 136h32M274 136h32M370 136h32M114 137h32M210 137h32M274 137h32M370 137h32M114 138h32M210 138h32M274 138h32M370 138h32M114 139h32M210 139h32M274 139h32M370 139h32M114 140h32M210 140h32M274 140h32M370 140h32M114 141h32M210 141h32M274 141h32M370 141h32M114 142h32M210 142h32M274 142h32M370 142h32M114 143h32M210 143h32M274 143h32M370 143h32M114 144h32M210 144h32M274 144h32M370 144h32M114 145h32M210 145h32M274 145h32M370 145h32M82 146h32M146 146h32M210 146h32M274 146h32M338 146h32M402 146h32M82 147h32M146 147h32M210 147h32M274 147h32M338 147h32M402 147h32M82 148h32M146 148h32M210 148h32M274 148h32M338 148h32M402 148h32M82 149h32M146 149h32M210 149h32M274 149h32M338 149h32M402 149h32M82 150h32M146 150h32M210 150h32M274 150h32M338 150h32M402 150h32M82 151h32M146 151h32M210 151h32M274 151h32M338 151h32M402 151h32M82 152h32M146 152h32M210 152h32M274 152h32M338 152h32M402 152h32M82 153h32M146 153h32M210 153h32M274 153h32M338 153h32M402 153h32M82 154h32M146 154h32M210 154h32M274 154h32M338 154h32M402 154h32M82 155h32M146 155h32M210 155h32M274 155h32M338 155h32M402 155h32M82 156h32M146 156h32M210 156h32M274 156h32M338 156h32M402 156h32M82 157h32M146 157h32M210 157h32M274 157h32M338 157h32M402 157h32M82 158h32M146 158h32M210 158h32M274 158h32M338 158h32M402 158h32M82 159h32M146 159h32M210 159h32M274 159h32M338 159h32M402 159h32M82 160h32M146 160h32M210 160h32M274 160h32M338 160h32M402 160h32M82 161h32M146 161h32M210 161h32M274 161h32M338 161h32M402 161h32M82 162h32M146 162h32M210 162h32M274 162h32M338 162h32M402 162h32M82 163h32M146 163h32M210 163h32M274 163h32M338 163h32M402 163h32M82 164h32M146 164h32M210 164h32M274 164h32M338 164h32M402 164h32M82 165h32M146 165h32M210 165h32M274 165h32M338 165h32M402 165h32M82 166h32M146 166h32M210 166h32M274 166h32M338 166h32M402 166h32M82 167h32M146 167h32M210 167h32M274 167h32M338 167h32M402 167h32M82 168h32M146 168h32M210 168h32M274 168h32M338 168h32M402 168h32M82 169h32M146 169h32M210 169h32M274 169h32M338 169h32M402 169h32M82 170h32M146 170h32M210 170h32M274 170h32M338 170h32M402 170h32M82 171h32M146 171h32M210 171h32M274 171h32M338 171h32M402 171h32M82 172h32M146 172h32M210 172h32M274 172h32M338 172h32M402 172h32M82 173h32M146 173h32M210 173h32M274 173h32M338 173h32M402 173h32M82 174h32M146 174h32M210 174h32M274 174h32M338 174h32M402 174h32M82 175h32M146 175h32M210 175h32M274 175h32M338 175h32M402 175h32M82 176h32M146 176h32M210 176h32M274 176h32M338 176h32M402 176h32M82 177h32M146 177h32M210 177h32M274 177h32M338 177h32M402 177h32M114 178h32M178 178h64M274 178h64M370 178h32M114 179h32M178 179h64M274 179h64M370 179h32M114 180h32M178 180h64M274 180h64M370 180h32M114 181h32M178 181h64M274 181h64M370 181h32M114 182h32M178 182h64M274 182h64M370 182h32M114 183h32M178 183h64M274 183h64M370 183h32M114 184h32M178 184h64M274 184h64M370 184h32M114 185h32M178 185h64M274 185h64M370 185h32M114 186h32M178 186h64M274 186h64M370 186h32M114 187h32M178 187h64M274 187h64M370 187h32M114 188h32M178 188h64M274 188h64M370 188h32M114 189h32M178 189h64M274 189h64M370 189h32M114 190h32M178 190h64M274 190h64M370 190h32M114 191h32M178 191h64M274 191h64M370 191h32M114 192h32M178 192h64M274 192h64M370 192h32M114 193h32M178 193h64M274 193h64M370 193h32M114 194h32M178 194h64M274 194h64M370 194h32M114 195h32M178 195h64M274 195h64M370 195h32M114 196h32M178 196h64M274 196h64M370 196h32M114 197h32M178 197h64M274 197h64M370 197h32M114 198h32M178 198h64M274 198h64M370 198h32M114 199h32M178 199h64M274 199h64M370 199h32M114 200h32M178 200h64M274 200h64M370 200h32M114 201h32M178 201h64M274 201h64M370 201h32M114 202h32M178 202h64M274 202h64M370 202h32M114 203h32M178 203h64M274 203h64M370 203h32M114 204h32M178 204h64M274 204h64M370 204h32M114 205h32M178 205h64M274 205h64M370 205h32M114 206h32M178 206h64M274 206h64M370 206h32M114 207h32M178 207h64M274 207h64M370 207h32M114 208h32M178 208h64M274 208h64M370 208h32M114 209h32M178 209h64M274 209h64M370 209h32M146 210h32M210 210h32M274 210h32M338 210h32M146 211h32M210 211h32M274 211h32M338 211h32M146 212h32M210 212h32M274 212h32M338 212h32M146 213h32M210 213h32M274 213h32M338 213h32M146 214h32M210 214h32M274 214h32M338 214h32M146 215h32M210 215h32M274 215h32M338 215h32M146 216h32M210 216h32M274 216h32M338 216h32M146 217h32M210 217h32M274 217h32M338 217h32M146 218h32M210 218h32M274 218h32M338 218h32M146 219h32M210 219h32M274 219h32M338 219h32M146 220h32M210 220h32M274 220h32M338 220h32M146 221h32M210 221h32M274 221h32M338 221h32M146 222h32M210 222h32M274 222h32M338 222h32M146 223h32M210 223h32M274 223h32M338 223h32M146 224h32M210 224h32M274 224h32M338 224h32M146 225h32M210 225h32M274 225h32M338 225h32M146 226h32M210 226h32M274 226h32M338 226h32M146 227h32M210 227h32M274 227h32M338 227h32M146 228h32M210 228h32M274 228h32M338 228h32M146 229h32M210 229h32M274 229h32M338 229h32M146 230h32M210 230h32M274 230h32M338 230h32M146 231h32M210 231h32M274 231h32M338 231h32M146 232h32M210 232h32M274 232h32M338 232h32M146 233h32M210 233h32M274 233h32M338 233h32M146 234h32M210 234h32M274 234h32M338 234h32M146 235h32M210 235h32M274 235h32M338 235h32M146 236h32M210 236h32M274 236h32M338 236h32M146 237h32M210 237h32M274 237h32M338 237h32M146 238h32M210 238h32M274 238h32M338 238h32M146 239h32M210 239h32M274 239h32M338 239h32M146 240h32M210 240h32M274 240h32M338 240h32M146 241h32M210 241h32M274 241h32M338 241h32M82 242h128M306 242h128M82 243h128M306 243h128M82 244h128M306 244h128M82 245h128M306 245h128M82 246h128M306 246h128M82 247h128M306 247h128M82 248h128M306 248h128M82 249h128M306 249h128M82 250h128M306 250h128M82 251h128M306 251h128M82 252h128M306 252h128M82 253h128M306 253h128M82 254h128M306 254h128M82 255h128M306 255h128M82 256h128M306 256h128M82 257h128M306 257h128M82 258h128M306 258h128M82 259h128M306 259h128M82 260h128M306 260h128M82 261h128M306 261h128M82 262h128M306 262h128M82 263h128M306 263h128M82 264h128M306 264h128M82 265h128M306 265h128M82 266h128M306 266h128M82 267h128M306 267h128M82 268h128M306 268h128M82 269h128M306 269h128M82 270h128M306 270h128M82 271h128M306 271h128M82 272h128M306 272h128M82 273h128M306 273h128M82 306h128M306 306h128M82 307h128M306 307h128M82 308h128M306 308h128M82 309h128M306 309h128M82 310h128M306 310h128M82 311h128M306 311h128M82 312h128M306 312h128M82 313h128M306 313h128M82 314h128M306 314h128M82 315h128M306 315h128M82 316h128M306 316h128M82 317h128M306 317h128M82 318h128M306 318h128M82 319h128M306 319h128M82 320h128M306 320h128M82 321h128M306 321h128M82 322h128M306 322h128M82 323h128M306 323h128M82 324h128M306 324h128M82 325h128M306 325h128M82 326h128M306 326h128M82 327h128M306 327h128M82 328h128M306 328h128M82 329h128M306 329h128M82 330h128M306 330h128M82 331h128M306 331h128M82 332h128M306 332h128M82 333h128M306 333h128M82 334h128M306 334h128M82 335h128M306 335h128M82 336h128M306 336h128M82 337h128M306 337h128M146 338h32M210 338h32M274 338h32M338 338h32M146 339h32M210 339h32M274 339h32M338 339h32M146 340h32M210 340h32M274 340h32M338 340h32M146 341h32M210 341h32M274 341h32M338 341h32M146 342h32M210 342h32M274 342h32M338 342h32M146 343h32M210 343h32M274 343h32M338 343h32M146 344h32M210 344h32M274 344h32M338 344h32M146 345h32M210 345h32M274 345h32M338 345h32M146 346h32M210 346h32M274 346h32M338 346h32M146 347h32M210 347h32M274 347h32M338 347h32M146 348h32M210 348h32M274 348h32M338 348h32M146 349h32M210 349h32M274 349h32M338 349h32M146 350h32M210 350h32M274 350h32M338 350h32M146 351h32M210 351h32M274 351h32M338 351h32M146 352h32M210 352h32M274 352h32M338 352h32M146 353h32M210 353h32M274 353h32M338 353h32M146 354h32M210 354h32M274 354h32M338 354h32M146 355h32M210 355h32M274 355h32M338 355h32M146 356h32M210 356h32M274 356h32M338 356h32M146 357h32M210 357h32M274 357h32M338 357h32M146 358h32M210 358h32M274 358h32M338 358h32M146 359h32M210 359h32M274 359h32M338 359h32M146 360h32M210 360h32M274 360h32M338 360h32M146 361h32M210 361h32M274 361h32M338 361h32M146 362h32M210 362h32M274 362h32M338 362h32M146 363h32M210 363h32M274 363h32M338 363h32M146 364h32M210 364h32M274 364h32M338 364h32M146 365h32M210 365h32M274 365h32M338 365h32M146 366h32M210 366h32M274 366h32M338 366h32M146 367h32M210 367h32M274 367h32M338 367h32M146 368h32M210 368h32M274 368h32M338 368h32M146 369h32M210 369h32M274 369h32M338 369h32M114 370h32M178 370h64M274 370h64M370 370h32M114 371h32M178 371h64M274 371h64M370 371h32M114 372h32M178 372h64M274 372h64M370 372h32M114 373h32M178 373h64M274 373h64M370 373h32M114 374h32M178 374h64M274 374h64M370 374h32M114 375h32M178 375h64M274 375h64M370 375h32M114 376h32M178 376h64M274 376h64M370 376h32M114 377h32M178 377h64M274 377h64M370 377h32M114 378h32M178 378h64M274 378h64M370 378h32M114 379h32M178 379h64M274 379h64M370 379h32M114 380h32M178 380h64M274 380h64M370 380h32M114 381h32M178 381h64M274 381h64M370 381h32M114 382h32M178 382h64M274 382h64M370 382h32M114 383h32M178 383h64M274 383h64M370 383h32M114 384h32M178 384h64M274 384h64M370 384h32M114 385h32M178 385h64M274 385h64M370 385h32M114 386h32M178 386h64M274 386h64M370 386h32M114 387h32M178 387h64M274 387h64M370 387h32M114 388h32M178 388h64M274 388h64M370 388h32M114 389h32M178 389h64M274 389h64M370 389h32M114 390h32M178 390h64M274 390h64M370 390h32M114 391h32M178 391h64M274 391h64M370 391h32M114 392h32M178 392h64M274 392h64M370 392h32M114 393h32M178 393h64M274 393h64M370 393h32M114 394h32M178 394h64M274 394h64M370 394h32M114 395h32M178 395h64M274 395h64M370 395h32M114 396h32M178 396h64M274 396h64M370 396h32M114 397h32M178 397h64M274 397h64M370 397h32M114 398h32M178 398h64M274 398h64M370 398h32M114 399h32M178 399h64M274 399h64M370 399h32M114 400h32M178 400h64M274 400h64M370 400h32M114 401h32M178 401h64M274 401h64M370 401h32M82 402h32M146 402h32M210 402h32M274 402h32M338 402h32M402 402h32M82 403h32M146 403h32M210 403h32M274 403h32M338 403h32M402 403h32M82 404h32M146 404h32M210 404h32M274 404h32M338 404h32M402 404h32M82 405h32M146 405h32M210 405h32M274 405h32M338 405h32M402 405h32M82 406h32M146 406h32M210 406h32M274 406h32M338 406h32M402 406h32M82 407h32M146 407h32M210 407h32M274 407h32M338 407h32M402 407h32M82 408h32M146 408h32M210 408h32M274 408h32M338 408h32M402 408h32M82 409h32M146 409h32M210 409h32M274 409h32M338 409h32M402 409h32M82 410h32M146 410h32M210 410h32M274 410h32M338 410h32M402 410h32M82 411h32M146 411h32M210 411h32M274 411h32M338 411h32M402 411h32M82 412h32M146 412h32M210 412h32M274 412h32M338 412h32M402 412h32M82 413h32M146 413h32M210 413h32M274 413h32M338 413h32M402 413h32M82 414h32M146 414h32M210 414h32M274 414h32M338 414h32M402 414h32M82 415h32M146 415h32M210 415h32M274 415h32M338 415h32M402 415h32M82 416h32M146 416h32M210 416h32M274 416h32M338 416h32M402 416h32M82 417h32M146 417h32M210 417h32M274 417h32M338 417h32M402 417h32M82 418h32M146 418h32M210 418h32M274 418h32M338 418h32M402 418h32M82 419h32M146 419h32M210 419h32M274 419h32M338 419h32M402 419h32M82 420h32M146 420h32M210 420h32M274 420h32M338 420h32M402 420h32M82 421h32M146 421h32M210 421h32M274 421h32M338 421h32M402 421h32M82 422h32M146 422h32M210 422h32M274 422h32M338 422h32M402 422h32M82 423h32M146 423h32M210 423h32M274 423h32M338 423h32M402 423h32M82 424h32M146 424h32M210 424h32M274 424h32M338 424h32M402 424h32M82 425h32M146 425h32M210 425h32M274 425h32M338 425h32M402 425h32M82 426h32M146 426h32M210 426h32M274 426h32M338 426h32M402 426h32M82 427h32M146 427h32M210 427h32M274 427h32M338 427h32M402 427h32M82 428h32M146 428h32M210 428h32M274 428h32M338 428h32M402 428h32M82 429h32M146 429h32M210 429h32M274 429h32M338 429h32M402 429h32M82 430h32M146 430h32M210 430h32M274 430h32M338 430h32M402 430h32M82 431h32M146 431h32M210 431h32M274 431h32M338 431h32M402 431h32M82 432h32M146 432h32M210 432h32M274 432h32M338 432h32M402 432h32M82 433h32M146 433h32M210 433h32M274 433h32M338 433h32M402 433h32M114 434h32M210 434h32M274 434h32M370 434h32M114 435h32M210 435h32M274 435h32M370 435h32M114 436h32M210 436h32M274 436h32M370 436h32M114 437h32M210 437h32M274 437h32M370 437h32M114 438h32M210 438h32M274 438h32M370 438h32M114 439h32M210 439h32M274 439h32M370 439h32M114 440h32M210 440h32M274 440h32M370 440h32M114 441h32M210 441h32M274 441h32M370 441h32M114 442h32M210 442h32M274 442h32M370 442h32M114 443h32M210 443h32M274 443h32M370 443h32M114 444h32M210 444h32M274 444h32M370 444h32M114 445h32M210 445h32M274 445h32M370 445h32M114 446h32M210 446h32M274 446h32M370 446h32M114 447h32M210 447h32M274 447h32M370 447h32M114 448h32M210 448h32M274 448h32M370 448h32M114 449h32M210 449h32M274 449h32M370 449h32M114 450h32M210 450h32M274 450h32M370 450h32M114 451h32M210 451h32M274 451h32M370 451h32M114 452h32M210 452h32M274 452h32M370 452h32M114 453h32M210 453h32M274 453h32M370 453h32M114 454h32M210 454h32M274 454h32M370 454h32M114 455h32M210 455h32M274 455h32M370 455h32M114 456h32M210 456h32M274 456h32M370 456h32M114 457h32M210 457h32M274 457h32M370 457h32M114 458h32M210 458h32M274 458h32M370 458h32M114 459h32M210 459h32M274 459h32M370 459h32M114 460h32M210 460h32M274 460h32M370 460h32M114 461h32M210 461h32M274 461h32M370 461h32M114 462h32M210 462h32M274 462h32M370 462h32M114 463h32M210 463h32M274 463h32M370 463h32M114 464h32M210 464h32M274 464h32M370 464h32M114 465h32M210 465h32M274 465h32M370 465h32" />
</svg>