<svg version="1.1" id="Layer_1" xmlns="http://www.w3.org/2000/svg" xmlns:xlink="http://www.w3.org/1999/xlink" x="0px" y="0px"
	 width="100%" viewBox="0 0 256 256" enable-background="new 0 0 256 256" xml:space="preserve">
<path fill="#CA3333" opacity="1.000000" stroke="none" 
	d="
M225.000000,257.000000 
	C161.312439,257.000000 97.624878,257.000000 33.468658,256.533325 
	C32.975342,251.062637 32.950680,246.058609 33.399395,241.045029 
	C97.605591,241.042740 161.338409,241.050018 225.043304,241.519836 
	C225.010254,246.988251 225.005127,251.994125 225.000000,257.000000 
z"/>
<path fill="#CA3333" opacity="1.000000" stroke="none" 
	d="
M257.000000,33.000000 
	C257.000000,96.687561 257.000000,160.375122 256.533325,224.531342 
	C251.062622,225.024658 246.058609,225.049316 241.045013,224.600601 
	C241.042740,160.394409 241.050034,96.661591 241.519836,32.956688 
	C246.988251,32.989735 251.994125,32.994865 257.000000,33.000000 
z"/>
<path fill="#CA3333" opacity="1.000000" stroke="none" 
	d="
M1.000000,225.000000 
	C1.000000,161.312439 1.000000,97.624878 1.466675,33.468658 
	C6.937346,32.975357 11.941344,32.950714 16.954929,33.399433 
	C16.957239,97.605614 16.949957,161.338425 16.480148,225.043320 
	C11.011748,225.010269 6.005874,225.005127 1.000000,225.000000 
z"/>
<path fill="#CA3333" opacity="1.000000" stroke="none" 
	d="
M33.000000,1.000000 
	C96.687561,1.000000 160.375122,1.000000 224.531342,1.466675 
	C225.024658,6.937351 225.049316,11.941353 224.600586,16.954941 
	C160.393524,16.958105 96.659836,16.951683 32.955093,16.482628 
	C32.989361,11.013329 32.994682,6.006664 33.000000,1.000000 
z"/>
<path fill="#000000" opacity="1.000000" stroke="none" 
	d="
M32.531342,1.000000 
	C32.994682,6.006664 32.989361,11.013329 32.981712,16.497231 
	C32.979389,16.974468 32.949303,16.922062 32.486122,16.952610 
	C27.137407,16.983158 22.251869,16.983158 16.921936,16.983158 
	C16.921936,22.770494 16.921936,27.859961 16.948174,32.964378 
	C16.974409,32.979332 16.945341,32.926067 16.945341,32.926067 
	C11.941344,32.950714 6.937346,32.975357 1.466675,33.000000 
	C1.000000,22.406796 1.000000,11.813590 1.000000,1.000000 
	C11.353187,1.000000 21.707935,1.000000 32.531342,1.000000 
z"/>
<path fill="#000000" opacity="1.000000" stroke="none" 
	d="
M241.054581,225.073975 
	C246.058609,225.049316 251.062622,225.024658 256.533325,225.000000 
	C257.000000,235.593216 257.000000,246.186417 257.000000,257.000000 
	C246.646820,257.000000 236.292068,257.000000 225.468658,257.000000 
	C225.005127,251.994125 225.010254,246.988251 225.020874,241.508514 
	C225.026337,241.034653 225.050674,241.077927 225.513855,241.047379 
	C230.862579,241.016830 235.748123,241.016830 241.078033,241.016830 
	C241.078033,235.229507 241.078033,230.140045 241.051788,225.035645 
	C241.025543,225.020706 241.054581,225.073975 241.054581,225.073975 
z"/>
<path fill="#000000" opacity="1.000000" stroke="none" 
	d="
M225.073975,16.945354 
	C225.049316,11.941353 225.024658,6.937351 225.000000,1.466675 
	C235.593201,1.000000 246.186401,1.000000 257.000000,1.000000 
	C257.000000,11.353187 257.000000,21.707935 257.000000,32.531342 
	C251.994125,32.994865 246.988251,32.989735 241.508530,32.979134 
	C241.034683,32.973667 241.077927,32.949306 241.047379,32.486130 
	C241.016830,27.137411 241.016830,22.251873 241.016830,16.921926 
	C235.229507,16.921926 230.140030,16.921926 225.035629,16.948170 
	C225.020691,16.974415 225.073959,16.945354 225.073975,16.945354 
z"/>
<path fill="#000000" opacity="1.000000" stroke="none" 
	d="
M1.000000,225.468658 
	C6.005874,225.005127 11.011748,225.010269 16.491467,225.020874 
	C16.965311,225.026367 16.922054,225.050690 16.952606,225.513855 
	C16.983156,230.862579 16.983156,235.748123 16.983156,241.078049 
	C22.770489,241.078049 27.859957,241.078049 32.964367,241.051804 
	C32.979309,241.025558 32.926022,241.054596 32.926022,241.054596 
	C32.950680,246.058609 32.975342,251.062637 33.000000,256.533325 
	C22.406794,257.000000 11.813587,257.000000 1.000000,257.000000 
	C1.000000,246.646820 1.000000,236.292068 1.000000,225.468658 
z"/>
<path fill="#DD3C3C" opacity="1.000000" stroke="none" 
	d="
M32.952766,16.959866 
	C96.659836,16.951683 160.393524,16.958105 224.600586,16.954941 
	C225.073959,16.945354 225.020691,16.974415 225.026794,17.420116 
	C225.038574,21.474318 225.045959,25.082815 225.049408,28.691317 
	C225.052109,31.503742 226.436066,32.945171 229.268417,32.947342 
	C233.204926,32.950359 237.141418,32.948872 241.077927,32.949306 
	C241.077927,32.949306 241.034683,32.973667 241.045990,32.951221 
	C241.050034,96.661591 241.042740,160.394409 241.045013,224.600601 
	C241.054581,225.073975 241.025543,225.020706 240.579849,225.026794 
	C236.525665,225.038574 232.917160,225.045944 229.308670,225.049408 
	C226.496246,225.052124 225.054840,226.436111 225.052658,229.268448 
	C225.049637,233.204941 225.051117,237.141434 225.050674,241.077927 
	C225.050674,241.077927 225.026337,241.034653 225.048782,241.045975 
	C161.338409,241.050018 97.605591,241.042740 33.399395,241.045029 
	C32.926022,241.054596 32.979309,241.025558 32.973209,240.579865 
	C32.961418,236.525665 32.954044,232.917175 32.950577,229.308670 
	C32.947872,226.496231 31.563915,225.054810 28.731556,225.052658 
	C24.795057,225.049652 20.858555,225.051132 16.922054,225.050690 
	C16.922054,225.050690 16.965311,225.026367 16.953995,225.048798 
	C16.949957,161.338425 16.957239,97.605614 16.954929,33.399433 
	C16.945341,32.926067 16.974409,32.979332 17.420116,32.973221 
	C21.474319,32.961418 25.082815,32.954044 28.691315,32.950581 
	C31.503748,32.947880 32.945175,31.563908 32.947350,28.731562 
	C32.950367,24.795063 32.948868,20.858562 32.949303,16.922062 
	C32.949303,16.922062 32.979389,16.974468 32.952766,16.959866 
M208.984116,48.092609 
	C208.986923,44.927032 208.840607,41.752506 209.029907,38.598122 
	C209.271561,34.571716 207.713272,32.794067 203.545334,32.958164 
	C198.222183,33.167740 192.884293,33.000832 187.552765,33.000504 
	C176.467117,32.999821 176.579269,32.997189 176.952164,43.994381 
	C177.074921,47.614605 178.434006,49.070526 182.041809,49.022396 
	C191.037186,48.902393 200.035110,48.974518 209.018387,49.910576 
	C209.012253,56.741241 209.002258,63.571907 209.000870,70.402573 
	C208.998566,81.749489 209.065384,81.808975 220.446167,80.973488 
	C220.612228,80.961296 220.846054,81.029335 220.935532,80.943047 
	C222.285172,79.641541 224.707611,78.370819 224.771103,76.995598 
	C225.139481,69.016136 225.139557,61.002346 224.772568,53.022781 
	C224.709076,51.642151 222.422318,49.433079 220.939072,49.228764 
	C217.014648,48.688190 212.967712,49.037109 208.984116,48.092609 
M97.018478,64.041367 
	C97.018478,59.119858 97.018478,54.198349 97.018478,49.324524 
	C85.946693,49.324524 75.698013,49.324524 65.164818,49.324524 
	C65.164818,54.769482 65.164818,59.894421 65.031898,65.945908 
	C65.031898,108.170341 65.031898,150.394775 65.031898,192.613342 
	C76.015831,192.613342 86.389748,192.613342 97.161278,192.613342 
	C97.161278,187.299301 97.161278,182.365967 97.161278,176.874420 
	C107.938744,176.874420 118.321899,176.874420 129.091583,176.874420 
	C129.091583,171.372314 129.091583,166.437820 129.091583,160.943665 
	C139.866638,160.943665 150.250443,160.943665 161.199051,160.943665 
	C161.199051,155.320847 161.199051,150.268784 161.199051,144.837143 
	C172.038391,144.837143 182.298187,144.837143 193.095245,144.837143 
	C193.095245,139.322067 193.095245,134.200699 194.013229,129.018890 
	C198.921875,129.018890 203.830505,129.018890 208.681030,129.018890 
	C208.681030,123.273499 208.681030,118.365219 208.681030,112.920044 
	C203.257980,112.920044 198.143204,112.920044 193.018127,112.981819 
	C193.018127,112.981819 193.079895,112.971504 193.018478,112.041374 
	C193.018478,107.144173 193.018478,102.246964 193.018478,96.920044 
	C181.850357,96.920044 171.439392,96.920044 161.018127,96.981819 
	C161.018127,96.981819 161.079895,96.971504 161.018478,96.041374 
	C161.018478,91.144173 161.018478,86.246964 161.018478,80.920044 
	C149.850357,80.920044 139.439392,80.920044 129.018127,80.981819 
	C129.018127,80.981819 129.079895,80.971504 129.018478,80.041374 
	C129.018478,75.144173 129.018478,70.246964 129.018478,64.920059 
	C117.850372,64.920059 107.439415,64.920059 97.018112,64.981834 
	C97.018112,64.981834 97.079880,64.971497 97.018478,64.041367 
M48.984158,208.089203 
	C48.989441,201.258438 48.998112,194.427658 48.999233,187.596893 
	C49.001099,176.250702 48.933666,176.190399 37.552971,177.026550 
	C37.386913,177.038757 37.153072,176.970703 37.063618,177.057007 
	C35.714230,178.358810 33.292313,179.629868 33.228825,181.005356 
	C32.860531,188.984955 32.860466,196.998871 33.227539,204.978561 
	C33.291031,206.358795 35.578606,208.566864 37.062309,208.771362 
	C40.986774,209.312256 45.033791,208.963943 49.018425,209.907196 
	C49.014771,213.072723 49.159756,216.247192 48.970188,219.401550 
	C48.728237,223.427475 50.285976,225.205933 54.454235,225.041794 
	C59.777306,224.832214 65.115105,224.999161 70.446556,224.999496 
	C81.532303,225.000214 81.420197,225.002838 81.047791,214.006622 
	C80.925217,210.387299 79.567940,208.929321 75.959328,208.977646 
	C66.964096,209.098114 57.966297,209.026505 48.984158,208.089203 
z"/>
<path fill="#CA3333" opacity="1.000000" stroke="none" 
	d="
M32.486122,16.952610 
	C32.948868,20.858562 32.950367,24.795063 32.947350,28.731562 
	C32.945175,31.563908 31.503748,32.947880 28.691315,32.950581 
	C25.082815,32.954044 21.474319,32.961418 17.393879,32.958267 
	C16.921936,27.859961 16.921936,22.770494 16.921936,16.983158 
	C22.251869,16.983158 27.137407,16.983158 32.486122,16.952610 
z"/>
<path fill="#CA3333" opacity="1.000000" stroke="none" 
	d="
M225.513855,241.047379 
	C225.051117,237.141434 225.049637,233.204941 225.052658,229.268448 
	C225.054840,226.436111 226.496246,225.052124 229.308670,225.049408 
	C232.917160,225.045944 236.525665,225.038574 240.606094,225.041733 
	C241.078033,230.140045 241.078033,235.229507 241.078033,241.016830 
	C235.748123,241.016830 230.862579,241.016830 225.513855,241.047379 
z"/>
<path fill="#CA3333" opacity="1.000000" stroke="none" 
	d="
M241.047379,32.486130 
	C237.141418,32.948872 233.204926,32.950359 229.268417,32.947342 
	C226.436066,32.945171 225.052109,31.503742 225.049408,28.691317 
	C225.045959,25.082815 225.038574,21.474318 225.041733,17.393871 
	C230.140030,16.921926 235.229507,16.921926 241.016830,16.921926 
	C241.016830,22.251873 241.016830,27.137411 241.047379,32.486130 
z"/>
<path fill="#CA3333" opacity="1.000000" stroke="none" 
	d="
M16.952606,225.513855 
	C20.858555,225.051132 24.795057,225.049652 28.731556,225.052658 
	C31.563915,225.054810 32.947872,226.496231 32.950577,229.308670 
	C32.954044,232.917175 32.961418,236.525665 32.958267,240.606110 
	C27.859957,241.078049 22.770489,241.078049 16.983156,241.078049 
	C16.983156,235.748123 16.983156,230.862579 16.952606,225.513855 
z"/>
<path fill="#E1E1E1" opacity="1.000000" stroke="none" 
	d="
M193.095245,129.079330 
	C193.095245,134.200699 193.095245,139.322067 193.095245,144.837143 
	C182.298187,144.837143 172.038391,144.837143 161.199051,144.837143 
	C161.199051,150.268784 161.199051,155.320847 161.199051,160.943665 
	C150.250443,160.943665 139.866638,160.943665 129.091583,160.943665 
	C129.091583,166.437820 129.091583,171.372314 129.091583,176.874420 
	C118.321899,176.874420 107.938744,176.874420 97.161278,176.874420 
	C97.161278,182.365967 97.161278,187.299301 97.161278,192.613342 
	C86.389748,192.613342 76.015831,192.613342 65.031898,192.613342 
	C65.031898,150.394775 65.031898,108.170341 65.556450,65.479362 
	C76.413963,64.999039 86.746918,64.985268 97.079880,64.971497 
	C97.079880,64.971497 97.018112,64.981834 97.018524,65.423660 
	C97.017525,69.170189 97.135361,72.480377 96.983589,75.778168 
	C96.806221,79.631966 98.541794,81.082993 102.312195,81.027267 
	C111.233086,80.895447 120.157127,80.976517 129.079895,80.971512 
	C129.079895,80.971504 129.018127,80.981819 129.018539,81.423645 
	C129.017548,85.170181 129.135361,88.480370 128.983582,91.778160 
	C128.806229,95.631966 130.541809,97.082985 134.312195,97.027267 
	C143.233093,96.895454 152.157135,96.976517 161.079895,96.971504 
	C161.079895,96.971504 161.018127,96.981819 161.018539,97.423645 
	C161.017532,101.170181 161.135361,104.480370 160.983582,107.778160 
	C160.806213,111.631966 162.541809,113.082977 166.312195,113.027260 
	C175.233093,112.895454 184.157135,112.976517 193.079895,112.971504 
	C193.079895,112.971504 193.018127,112.981819 193.018539,113.423920 
	C193.044373,118.937126 193.069809,124.008232 193.095245,129.079330 
z"/>
<path fill="#C2C2D1" opacity="1.000000" stroke="none" 
	d="
M193.049194,112.506439 
	C184.157135,112.976517 175.233093,112.895454 166.312195,113.027260 
	C162.541809,113.082977 160.806213,111.631966 160.983582,107.778160 
	C161.135361,104.480370 161.017532,101.170181 161.023682,97.392761 
	C171.439392,96.920044 181.850357,96.920044 193.018478,96.920044 
	C193.018478,102.246964 193.018478,107.144173 193.049194,112.506439 
z"/>
<path fill="#E26565" opacity="1.000000" stroke="none" 
	d="
M48.969532,209.032013 
	C57.966297,209.026505 66.964096,209.098114 75.959328,208.977646 
	C79.567940,208.929321 80.925217,210.387299 81.047791,214.006622 
	C81.420197,225.002838 81.532303,225.000214 70.446556,224.999496 
	C65.115105,224.999161 59.777306,224.832214 54.454235,225.041794 
	C50.285976,225.205933 48.728237,223.427475 48.970188,219.401550 
	C49.159756,216.247192 49.014771,213.072723 49.009491,209.453873 
	C49.000561,209.000549 48.969532,209.032013 48.969532,209.032013 
z"/>
<path fill="#E26565" opacity="1.000000" stroke="none" 
	d="
M49.016296,208.985046 
	C45.033791,208.963943 40.986774,209.312256 37.062309,208.771362 
	C35.578606,208.566864 33.291031,206.358795 33.227539,204.978561 
	C32.860466,196.998871 32.860531,188.984955 33.228825,181.005356 
	C33.292313,179.629868 35.714230,178.358810 37.063618,177.057007 
	C37.153072,176.970703 37.386913,177.038757 37.552971,177.026550 
	C48.933666,176.190399 49.001099,176.250702 48.999233,187.596893 
	C48.998112,194.427658 48.989441,201.258438 48.976845,208.560608 
	C48.969532,209.032013 49.000561,209.000549 49.016296,208.985046 
z"/>
<path fill="#C2C2D1" opacity="1.000000" stroke="none" 
	d="
M161.049194,96.506439 
	C152.157135,96.976517 143.233093,96.895454 134.312195,97.027267 
	C130.541809,97.082985 128.806229,95.631966 128.983582,91.778160 
	C129.135361,88.480370 129.017548,85.170181 129.023682,81.392761 
	C139.439392,80.920044 149.850357,80.920044 161.018478,80.920044 
	C161.018478,86.246964 161.018478,91.144173 161.049194,96.506439 
z"/>
<path fill="#C2C2D1" opacity="1.000000" stroke="none" 
	d="
M129.049194,80.506439 
	C120.157127,80.976517 111.233086,80.895447 102.312195,81.027267 
	C98.541794,81.082993 96.806221,79.631966 96.983589,75.778168 
	C97.135361,72.480377 97.017525,69.170189 97.023697,65.392769 
	C107.439415,64.920059 117.850372,64.920059 129.018478,64.920059 
	C129.018478,70.246964 129.018478,75.144173 129.049194,80.506439 
z"/>
<path fill="#E26565" opacity="1.000000" stroke="none" 
	d="
M208.969528,49.032028 
	C212.967712,49.037109 217.014648,48.688190 220.939072,49.228764 
	C222.422318,49.433079 224.709076,51.642151 224.772568,53.022781 
	C225.139557,61.002346 225.139481,69.016136 224.771103,76.995598 
	C224.707611,78.370819 222.285172,79.641541 220.935532,80.943047 
	C220.846054,81.029335 220.612228,80.961296 220.446167,80.973488 
	C209.065384,81.808975 208.998566,81.749489 209.000870,70.402573 
	C209.002258,63.571907 209.012253,56.741241 209.009460,49.455566 
	C209.000549,49.000557 208.969528,49.032028 208.969528,49.032028 
z"/>
<path fill="#C2C2D1" opacity="1.000000" stroke="none" 
	d="
M97.049179,64.506432 
	C86.746918,64.985268 76.413963,64.999039 65.622910,65.016083 
	C65.164818,59.894421 65.164818,54.769482 65.164818,49.324524 
	C75.698013,49.324524 85.946693,49.324524 97.018478,49.324524 
	C97.018478,54.198349 97.018478,59.119858 97.049179,64.506432 
z"/>
<path fill="#E26565" opacity="1.000000" stroke="none" 
	d="
M209.016281,48.985039 
	C200.035110,48.974518 191.037186,48.902393 182.041809,49.022396 
	C178.434006,49.070526 177.074921,47.614605 176.952164,43.994381 
	C176.579269,32.997189 176.467117,32.999821 187.552765,33.000504 
	C192.884293,33.000832 198.222183,33.167740 203.545334,32.958164 
	C207.713272,32.794067 209.271561,34.571716 209.029907,38.598122 
	C208.840607,41.752506 208.986923,44.927032 208.976822,48.562317 
	C208.969528,49.032028 209.000549,49.000557 209.016281,48.985039 
z"/>
<path fill="#C2C2D1" opacity="1.000000" stroke="none" 
	d="
M193.554230,129.049103 
	C193.069809,124.008232 193.044373,118.937126 193.023682,113.393036 
	C198.143204,112.920044 203.257980,112.920044 208.681030,112.920044 
	C208.681030,118.365219 208.681030,123.273499 208.681030,129.018890 
	C203.830505,129.018890 198.921875,129.018890 193.554230,129.049103 
z"/>
</svg>