<svg version="1.1" id="Layer_1" xmlns="http://www.w3.org/2000/svg" xmlns:xlink="http://www.w3.org/1999/xlink" x="0px" y="0px"
	 width="100%" viewBox="0 0 512 512" enable-background="new 0 0 512 512" xml:space="preserve">
<path fill="#FF0000" opacity="1.000000" stroke="none" 
	d="
M1.000000,481.000000 
	C1.000000,331.975922 1.000000,182.951843 1.467488,33.463882 
	C6.839652,33.000000 11.744328,33.000000 17.134193,33.000000 
	C17.134193,27.379793 17.134193,22.341646 17.134193,16.824265 
	C22.665180,16.824265 27.699661,16.824265 33.000000,16.824265 
	C33.000000,11.215611 33.000000,6.107806 33.000000,1.000000 
	C182.024078,1.000000 331.048157,1.000000 480.536133,1.467488 
	C481.000000,6.839654 481.000000,11.744331 481.000000,17.134201 
	C486.620178,17.134201 491.658325,17.134201 497.175720,17.134201 
	C497.175720,22.665178 497.175720,27.699659 497.175720,33.000000 
	C502.783173,33.000000 507.891571,33.000000 513.000000,33.000000 
	C513.000000,182.024078 513.000000,331.048157 512.532532,480.536133 
	C507.139038,481.000000 502.212982,481.000000 496.775024,481.000000 
	C496.775024,486.725128 496.775024,491.794983 496.775024,497.257812 
	C491.271881,497.257812 486.294128,497.257812 481.000000,497.257812 
	C481.000000,502.719727 481.000000,507.859863 481.000000,513.000000 
	C331.975922,513.000000 182.951843,513.000000 33.463882,512.532532 
	C33.000000,507.160370 33.000000,502.255676 33.000000,496.865814 
	C27.380182,496.865814 22.342607,496.865814 16.824284,496.865814 
	C16.824284,491.334808 16.824284,486.300323 16.824284,481.000000 
	C11.215619,481.000000 6.107810,481.000000 1.000000,481.000000 
M333.346405,304.999939 
	C335.993561,305.398682 337.263123,304.626099 337.065765,301.590790 
	C336.799713,297.499237 336.999725,293.377380 336.999725,288.849609 
	C342.616455,288.849609 347.693878,288.849609 353.191467,288.849609 
	C353.191467,283.340668 353.191467,278.265839 353.191467,272.767517 
	C358.702576,272.767517 363.776276,272.767517 368.642700,272.767517 
	C368.642700,267.248901 368.642700,262.176544 368.642700,256.684875 
	C363.210205,256.684875 358.130554,256.684875 352.822205,256.684875 
	C352.822205,251.291702 352.822205,246.339996 352.822205,240.956802 
	C347.494873,240.956802 342.414154,240.956802 336.915710,240.956802 
	C336.915710,235.452301 336.915710,230.372208 336.915710,224.874664 
	C331.408752,224.874664 326.329559,224.874664 320.833557,224.874664 
	C320.833557,219.366714 320.833557,214.289383 320.833557,208.792526 
	C315.322968,208.792526 310.249237,208.792526 304.751434,208.792526 
	C304.751434,203.280289 304.751434,198.205368 304.751434,192.710388 
	C299.236115,192.710388 294.156830,192.710388 288.846069,192.710388 
	C288.846069,187.318146 288.846069,182.365845 288.846069,176.981750 
	C283.521484,176.981750 278.441956,176.981750 272.940674,176.981750 
	C272.940674,171.477936 272.940674,166.397293 272.940674,160.899628 
	C267.435303,160.899628 262.355103,160.899628 256.858521,160.899628 
	C256.858521,155.391891 256.858521,150.312088 256.858521,144.817474 
	C251.349991,144.817474 246.274490,144.817474 240.776398,144.817474 
	C240.776398,139.306335 240.776398,134.232986 240.776398,128.735352 
	C235.263184,128.735352 230.189377,128.735352 224.694275,128.735352 
	C224.694275,123.219383 224.694275,118.144341 224.694275,112.829987 
	C219.301590,112.829987 214.349899,112.829987 208.965698,112.829987 
	C208.965698,107.504189 208.965698,102.423447 208.965698,97.258514 
	C203.454239,97.258514 198.387527,97.258514 193.272919,97.258514 
	C193.272919,209.246490 193.272919,320.975739 193.272919,432.706635 
	C198.619049,432.706635 203.686035,432.706635 209.186676,432.706635 
	C209.186676,427.345642 209.186676,422.270538 209.186676,416.772217 
	C214.697525,416.772217 219.771225,416.772217 225.268829,416.772217 
	C225.268829,411.258728 225.268829,406.184967 225.268829,400.690063 
	C230.785522,400.690063 235.865768,400.690063 241.174210,400.690063 
	C241.174210,395.297211 241.174210,390.345367 241.174210,384.961487 
	C246.499451,384.961487 251.578491,384.961487 257.079559,384.961487 
	C257.079559,379.456696 257.079559,374.375763 257.079559,368.879364 
	C262.586334,368.879364 267.665161,368.879364 273.161682,368.879364 
	C273.161682,363.371674 273.161682,358.294189 273.161682,352.797241 
	C278.671173,352.797241 283.745483,352.797241 289.243774,352.797241 
	C289.243774,347.285400 289.243774,342.210968 289.243774,336.715149 
	C294.758728,336.715149 299.837616,336.715149 305.149109,336.715149 
	C305.149109,331.323059 305.149109,326.370514 305.149109,320.986633 
	C310.473083,320.986633 315.551544,320.986633 321.054443,320.986633 
	C321.054443,315.483856 321.054443,310.404205 321.054443,305.000000 
	C325.122070,305.000000 328.753357,305.000000 333.346405,304.999939 
z"/>
<path fill="#000000" opacity="1.000000" stroke="none" 
	d="
M32.531342,1.000000 
	C33.000000,6.107806 33.000000,11.215611 33.000000,16.824265 
	C27.699661,16.824265 22.665180,16.824265 17.134193,16.824265 
	C17.134193,22.341646 17.134193,27.379793 17.134193,33.000000 
	C11.744328,33.000000 6.839652,33.000000 1.467488,33.000000 
	C1.000000,22.406796 1.000000,11.813590 1.000000,1.000000 
	C11.353187,1.000000 21.707935,1.000000 32.531342,1.000000 
z"/>
<path fill="#000000" opacity="1.000000" stroke="none" 
	d="
M513.000000,32.531342 
	C507.891571,33.000000 502.783173,33.000000 497.175720,33.000000 
	C497.175720,27.699659 497.175720,22.665178 497.175720,17.134201 
	C491.658325,17.134201 486.620178,17.134201 481.000000,17.134201 
	C481.000000,11.744331 481.000000,6.839654 481.000000,1.467488 
	C491.593201,1.000000 502.186401,1.000000 513.000000,1.000000 
	C513.000000,11.353187 513.000000,21.707935 513.000000,32.531342 
z"/>
<path fill="#000000" opacity="1.000000" stroke="none" 
	d="
M1.000000,481.468658 
	C6.107810,481.000000 11.215619,481.000000 16.824284,481.000000 
	C16.824284,486.300323 16.824284,491.334808 16.824284,496.865814 
	C22.342607,496.865814 27.380182,496.865814 33.000000,496.865814 
	C33.000000,502.255676 33.000000,507.160370 33.000000,512.532532 
	C22.406794,513.000000 11.813587,513.000000 1.000000,513.000000 
	C1.000000,502.646820 1.000000,492.292053 1.000000,481.468658 
z"/>
<path fill="#000000" opacity="1.000000" stroke="none" 
	d="
M481.468658,513.000000 
	C481.000000,507.859863 481.000000,502.719727 481.000000,497.257812 
	C486.294128,497.257812 491.271881,497.257812 496.775024,497.257812 
	C496.775024,491.794983 496.775024,486.725128 496.775024,481.000000 
	C502.212982,481.000000 507.139038,481.000000 512.532532,481.000000 
	C513.000000,491.593201 513.000000,502.186401 513.000000,513.000000 
	C502.646820,513.000000 492.292053,513.000000 481.468658,513.000000 
z"/>
<path fill="#FFFFFF" opacity="1.000000" stroke="none" 
	d="
M332.865540,304.999969 
	C328.753357,305.000000 325.122070,305.000000 321.054443,305.000000 
	C321.054443,310.404205 321.054443,315.483856 321.054443,320.986633 
	C315.551544,320.986633 310.473083,320.986633 305.149109,320.986633 
	C305.149109,326.370514 305.149109,331.323059 305.149109,336.715149 
	C299.837616,336.715149 294.758728,336.715149 289.243774,336.715149 
	C289.243774,342.210968 289.243774,347.285400 289.243774,352.797241 
	C283.745483,352.797241 278.671173,352.797241 273.161682,352.797241 
	C273.161682,358.294189 273.161682,363.371674 273.161682,368.879364 
	C267.665161,368.879364 262.586334,368.879364 257.079559,368.879364 
	C257.079559,374.375763 257.079559,379.456696 257.079559,384.961487 
	C251.578491,384.961487 246.499451,384.961487 241.174210,384.961487 
	C241.174210,390.345367 241.174210,395.297211 241.174210,400.690063 
	C235.865768,400.690063 230.785522,400.690063 225.268829,400.690063 
	C225.268829,406.184967 225.268829,411.258728 225.268829,416.772217 
	C219.771225,416.772217 214.697525,416.772217 209.186676,416.772217 
	C209.186676,422.270538 209.186676,427.345642 209.186676,432.706635 
	C203.686035,432.706635 198.619049,432.706635 193.272919,432.706635 
	C193.272919,320.975739 193.272919,209.246490 193.272919,97.258514 
	C198.387527,97.258514 203.454239,97.258514 208.965698,97.258514 
	C208.965698,102.423447 208.965698,107.504189 208.965698,112.829987 
	C214.349899,112.829987 219.301590,112.829987 224.694275,112.829987 
	C224.694275,118.144341 224.694275,123.219383 224.694275,128.735352 
	C230.189377,128.735352 235.263184,128.735352 240.776398,128.735352 
	C240.776398,134.232986 240.776398,139.306335 240.776398,144.817474 
	C246.274490,144.817474 251.349991,144.817474 256.858521,144.817474 
	C256.858521,150.312088 256.858521,155.391891 256.858521,160.899628 
	C262.355103,160.899628 267.435303,160.899628 272.940674,160.899628 
	C272.940674,166.397293 272.940674,171.477936 272.940674,176.981750 
	C278.441956,176.981750 283.521484,176.981750 288.846069,176.981750 
	C288.846069,182.365845 288.846069,187.318146 288.846069,192.710388 
	C294.156830,192.710388 299.236115,192.710388 304.751434,192.710388 
	C304.751434,198.205368 304.751434,203.280289 304.751434,208.792526 
	C310.249237,208.792526 315.322968,208.792526 320.833557,208.792526 
	C320.833557,214.289383 320.833557,219.366714 320.833557,224.874664 
	C326.329559,224.874664 331.408752,224.874664 336.915710,224.874664 
	C336.915710,230.372208 336.915710,235.452301 336.915710,240.956802 
	C342.414154,240.956802 347.494873,240.956802 352.822205,240.956802 
	C352.822205,246.339996 352.822205,251.291702 352.822205,256.684875 
	C358.130554,256.684875 363.210205,256.684875 368.642700,256.684875 
	C368.642700,262.176544 368.642700,267.248901 368.642700,272.767517 
	C363.776276,272.767517 358.702576,272.767517 353.191467,272.767517 
	C353.191467,278.265839 353.191467,283.340668 353.191467,288.849609 
	C347.693878,288.849609 342.616455,288.849609 336.999725,288.849609 
	C336.999725,293.377380 336.799713,297.499237 337.065765,301.590790 
	C337.263123,304.626099 335.993561,305.398682 332.865540,304.999969 
z"/>
</svg>